<svg version="1.1" viewBox="0.0 0.0 960.0 540.0" fill="none" stroke="none" stroke-linecap="square" stroke-miterlimit="10" xmlns:xlink="http://www.w3.org/1999/xlink" xmlns="http://www.w3.org/2000/svg"><clipPath id="p.0"><path d="m0 0l960.0 0l0 540.0l-960.0 0l0 -540.0z" clip-rule="nonzero"/></clipPath><g clip-path="url(#p.0)"><path fill="#000000" fill-opacity="0.0" d="m0 0l960.0 0l0 540.0l-960.0 0z" fill-rule="evenodd"/><path fill="#666666" d="m599.126 275.46457l2.7086792 0l0 27.653534l-2.7086792 0z" fill-rule="evenodd"/><path stroke="#000000" stroke-width="1.0" stroke-linejoin="round" stroke-linecap="butt" d="m599.126 275.46457l2.7086792 0l0 27.653534l-2.7086792 0z" fill-rule="evenodd"/><path fill="#666666" d="m613.0039 275.46457l2.7086182 0l0 14.2677l-2.7086182 0z" fill-rule="evenodd"/><path stroke="#000000" stroke-width="1.0" stroke-linejoin="round" stroke-linecap="butt" d="m613.0039 275.46457l2.7086182 0l0 14.2677l-2.7086182 0z" fill-rule="evenodd"/><path fill="#666666" d="m199.53543 230.03773l2.708664 0l0 14.267715l-2.708664 0z" fill-rule="evenodd"/><path stroke="#000000" stroke-width="1.0" stroke-linejoin="round" stroke-linecap="butt" d="m199.53543 230.03773l2.708664 0l0 14.267715l-2.708664 0z" fill-rule="evenodd"/><path fill="#666666" d="m220.3517 230.46292l2.708664 0l0 14.267715l-2.708664 0z" fill-rule="evenodd"/><path stroke="#000000" stroke-width="1.0" stroke-linejoin="round" stroke-linecap="butt" d="m220.3517 230.46292l2.708664 0l0 14.267715l-2.708664 0z" fill-rule="evenodd"/><path fill="#666666" d="m55.535435 241.7979l2.7086601 0l0 14.267715l-2.7086601 0z" fill-rule="evenodd"/><path stroke="#000000" stroke-width="1.0" stroke-linejoin="round" stroke-linecap="butt" d="m55.535435 241.7979l2.7086601 0l0 14.267715l-2.7086601 0z" fill-rule="evenodd"/><path fill="#666666" d="m85.026245 241.7979l2.708664 0l0 14.267715l-2.708664 0z" fill-rule="evenodd"/><path stroke="#000000" stroke-width="1.0" stroke-linejoin="round" stroke-linecap="butt" d="m85.026245 241.7979l2.708664 0l0 14.267715l-2.708664 0z" fill-rule="evenodd"/><path fill="#6d9eeb" d="m438.8838 178.69933l0 0c0 -2.9303284 2.3754883 -5.305832 5.3058167 -5.305832l115.68753 0c1.4072266 0 2.756775 0.55900574 3.751831 1.5540466c0.9949951 0.9950409 1.5540161 2.3445892 1.5540161 3.7517853l0 269.57733c0 2.9303284 -2.3754883 5.305847 -5.305847 5.305847l-115.68753 0c-2.9303284 0 -5.3058167 -2.3755188 -5.3058167 -5.305847z" fill-rule="evenodd"/><path stroke="#000000" stroke-width="1.0" stroke-linejoin="round" stroke-linecap="butt" d="m438.8838 178.69933l0 0c0 -2.9303284 2.3754883 -5.305832 5.3058167 -5.305832l115.68753 0c1.4072266 0 2.756775 0.55900574 3.751831 1.5540466c0.9949951 0.9950409 1.5540161 2.3445892 1.5540161 3.7517853l0 269.57733c0 2.9303284 -2.3754883 5.305847 -5.305847 5.305847l-115.68753 0c-2.9303284 0 -5.3058167 -2.3755188 -5.3058167 -5.305847z" fill-rule="evenodd"/><path fill="#cccccc" d="m487.88455 160.6588l28.283234 0c1.59552 0 3.1256714 0.6338043 4.253845 1.7620087c1.1281738 1.1281891 1.7620239 2.6583405 1.7620239 4.2538605l0 30.078613c0 1.8310547E-4 -1.8310547E-4 3.3569336E-4 -3.6621094E-4 3.3569336E-4l-40.314606 -3.3569336E-4l0 0c-1.8310547E-4 0 -3.3569336E-4 -1.5258789E-4 -3.3569336E-4 -3.3569336E-4l3.3569336E-4 -30.078278l0 0c0 -3.3224792 2.69339 -6.015869 6.015869 -6.015869z" fill-rule="evenodd"/><path stroke="#000000" stroke-width="1.0" stroke-linejoin="round" stroke-linecap="butt" d="m487.88455 160.6588l28.283234 0c1.59552 0 3.1256714 0.6338043 4.253845 1.7620087c1.1281738 1.1281891 1.7620239 2.6583405 1.7620239 4.2538605l0 30.078613c0 1.8310547E-4 -1.8310547E-4 3.3569336E-4 -3.6621094E-4 3.3569336E-4l-40.314606 -3.3569336E-4l0 0c-1.8310547E-4 0 -3.3569336E-4 -1.5258789E-4 -3.3569336E-4 -3.3569336E-4l3.3569336E-4 -30.078278l0 0c0 -3.3224792 2.69339 -6.015869 6.015869 -6.015869z" fill-rule="evenodd"/><path fill="#666666" d="m550.4554 208.74176l28.094482 0l0 5.3228455l-28.094482 0z" fill-rule="evenodd"/><path stroke="#000000" stroke-width="1.0" stroke-linejoin="round" stroke-linecap="butt" d="m550.4554 208.74176l28.094482 0l0 5.3228455l-28.094482 0z" fill-rule="evenodd"/><path fill="#666666" d="m550.4554 309.53113l28.094482 0l0 5.322815l-28.094482 0z" fill-rule="evenodd"/><path stroke="#000000" stroke-width="1.0" stroke-linejoin="round" stroke-linecap="butt" d="m550.4554 309.53113l28.094482 0l0 5.322815l-28.094482 0z" fill-rule="evenodd"/><path fill="#666666" d="m425.65222 332.38702l28.094482 0l0 5.3228455l-28.094482 0z" fill-rule="evenodd"/><path stroke="#000000" stroke-width="1.0" stroke-linejoin="round" stroke-linecap="butt" d="m425.65222 332.38702l28.094482 0l0 5.3228455l-28.094482 0z" fill-rule="evenodd"/><path fill="#666666" d="m425.65222 359.98312l28.094482 0l0 5.322815l-28.094482 0z" fill-rule="evenodd"/><path stroke="#000000" stroke-width="1.0" stroke-linejoin="round" stroke-linecap="butt" d="m425.65222 359.98312l28.094482 0l0 5.322815l-28.094482 0z" fill-rule="evenodd"/><path fill="#000000" fill-opacity="0.0" d="m498.87927 196.95538l45.102356 0l0 25.228348l-45.102356 0z" fill-rule="evenodd"/><path fill="#000000" d="m518.22015 214.64955l0 -10.484375l3.625 0q1.21875 0 1.859375 0.140625q0.90625 0.203125 1.546875 0.75q0.828125 0.703125 1.234375 1.796875q0.40625 1.09375 0.40625 2.5q0 1.1875 -0.28125 2.109375q-0.265625 0.921875 -0.703125 1.53125q-0.4375 0.609375 -0.96875 0.953125q-0.515625 0.34375 -1.25 0.53125q-0.71875 0.171875 -1.671875 0.171875l-3.796875 0zm1.390625 -1.234375l2.25 0q1.03125 0 1.625 -0.1875q0.59375 -0.203125 0.9375 -0.546875q0.5 -0.5 0.765625 -1.328125q0.28125 -0.84375 0.28125 -2.03125q0 -1.640625 -0.546875 -2.515625q-0.53125 -0.890625 -1.3125 -1.1875q-0.546875 -0.21875 -1.796875 -0.21875l-2.203125 0l0 8.015625zm13.5217285 1.234375l-1.28125 0l0 -8.203125q-0.46875 0.4375 -1.21875 0.890625q-0.75 0.4375 -1.359375 0.65625l0 -1.25q1.078125 -0.5 1.890625 -1.21875q0.8125 -0.734375 1.140625 -1.40625l0.828125 0l0 10.53125zm10.072998 -1.234375l0 1.234375l-6.9375 0q-0.015625 -0.46875 0.15625 -0.890625q0.265625 -0.71875 0.84375 -1.40625q0.59375 -0.6875 1.6875 -1.578125q1.71875 -1.40625 2.3125 -2.21875q0.609375 -0.828125 0.609375 -1.5625q0 -0.765625 -0.5625 -1.28125q-0.546875 -0.53125 -1.421875 -0.53125q-0.921875 0 -1.484375 0.5625q-0.5625 0.5625 -0.5625 1.546875l-1.328125 -0.140625q0.140625 -1.484375 1.015625 -2.25q0.890625 -0.78125 2.390625 -0.78125q1.515625 0 2.390625 0.84375q0.875 0.828125 0.875 2.0625q0 0.640625 -0.265625 1.25q-0.25 0.59375 -0.84375 1.265625q-0.59375 0.671875 -1.984375 1.859375q-1.15625 0.96875 -1.484375 1.3125q-0.328125 0.34375 -0.546875 0.703125l5.140625 0z" fill-rule="nonzero"/><path fill="#000000" fill-opacity="0.0" d="m484.55386 299.6797l60.062958 0l0 25.228363l-60.062958 0z" fill-rule="evenodd"/><path fill="#000000" d="m518.85535 317.37387l0 -10.484375l3.625 0q1.21875 0 1.859375 0.140625q0.90625 0.203125 1.546875 0.75q0.828125 0.703125 1.234375 1.796875q0.40625 1.09375 0.40625 2.5q0 1.1875 -0.28125 2.109375q-0.265625 0.921875 -0.703125 1.53125q-0.4375 0.609375 -0.96875 0.953125q-0.515625 0.34375 -1.25 0.53125q-0.71875 0.171875 -1.671875 0.171875l-3.796875 0zm1.390625 -1.234375l2.25 0q1.03125 0 1.625 -0.1875q0.59375 -0.203125 0.9375 -0.546875q0.5 -0.5 0.765625 -1.328125q0.28125 -0.84375 0.28125 -2.03125q0 -1.640625 -0.546875 -2.515625q-0.53125 -0.890625 -1.3125 -1.1875q-0.546875 -0.21875 -1.796875 -0.21875l-2.203125 0l0 8.015625zm13.52179 1.234375l-1.28125 0l0 -8.203125q-0.46875 0.4375 -1.21875 0.890625q-0.75 0.4375 -1.359375 0.65625l0 -1.25q1.078125 -0.5 1.890625 -1.21875q0.8125 -0.734375 1.140625 -1.40625l0.828125 0l0 10.53125zm3.307373 -2.765625l1.296875 -0.171875q0.21875 1.09375 0.75 1.578125q0.53125 0.484375 1.296875 0.484375q0.90625 0 1.53125 -0.625q0.640625 -0.640625 0.640625 -1.5625q0 -0.890625 -0.59375 -1.46875q-0.578125 -0.578125 -1.46875 -0.578125q-0.359375 0 -0.90625 0.140625l0.140625 -1.125q0.125 0.015625 0.203125 0.015625q0.828125 0 1.484375 -0.421875q0.65625 -0.4375 0.65625 -1.34375q0 -0.703125 -0.484375 -1.15625q-0.46875 -0.46875 -1.234375 -0.46875q-0.75 0 -1.25 0.46875q-0.5 0.46875 -0.640625 1.421875l-1.28125 -0.234375q0.234375 -1.296875 1.0625 -2.0q0.84375 -0.71875 2.09375 -0.71875q0.859375 0 1.578125 0.375q0.71875 0.359375 1.09375 1.0q0.390625 0.640625 0.390625 1.34375q0 0.6875 -0.375 1.25q-0.359375 0.546875 -1.0625 0.875q0.921875 0.21875 1.4375 0.90625q0.515625 0.671875 0.515625 1.6875q0 1.375 -1.0 2.328125q-1.0 0.953125 -2.53125 0.953125q-1.390625 0 -2.296875 -0.8125q-0.90625 -0.828125 -1.046875 -2.140625z" fill-rule="nonzero"/><path fill="#000000" fill-opacity="0.0" d="m458.02365 323.20395l89.29135 0l0 25.228333l-89.29135 0z" fill-rule="evenodd"/><path fill="#000000" d="m459.14865 340.89813l0 -10.484375l3.625 0q1.21875 0 1.859375 0.140625q0.90625 0.203125 1.546875 0.75q0.828125 0.703125 1.234375 1.796875q0.40625 1.09375 0.40625 2.5q0 1.1875 -0.28125 2.109375q-0.265625 0.921875 -0.703125 1.53125q-0.4375 0.609375 -0.96875 0.953125q-0.515625 0.34375 -1.25 0.53125q-0.71875 0.171875 -1.671875 0.171875l-3.796875 0zm1.390625 -1.234375l2.25 0q1.03125 0 1.625 -0.1875q0.59375 -0.203125 0.9375 -0.546875q0.5 -0.5 0.765625 -1.328125q0.28125 -0.84375 0.28125 -2.03125q0 -1.640625 -0.546875 -2.515625q-0.53125 -0.890625 -1.3125 -1.1875q-0.546875 -0.21875 -1.796875 -0.21875l-2.203125 0l0 8.015625zm13.521759 1.234375l-1.28125 0l0 -8.203125q-0.46875 0.4375 -1.21875 0.890625q-0.75 0.4375 -1.359375 0.65625l0 -1.25q1.078125 -0.5 1.890625 -1.21875q0.8125 -0.734375 1.140625 -1.40625l0.828125 0l0 10.53125zm7.062561 0l-1.28125 0l0 -8.203125q-0.46875 0.4375 -1.21875 0.890625q-0.75 0.4375 -1.359375 0.65625l0 -1.25q1.078125 -0.5 1.890625 -1.21875q0.8125 -0.734375 1.140625 -1.40625l0.828125 0l0 10.53125z" fill-rule="nonzero"/><path fill="#000000" d="m490.70605 343.42938q-0.875 -1.109375 -1.484375 -2.578125q-0.59375 -1.484375 -0.59375 -3.0625q0 -1.390625 0.4375 -2.671875q0.53125 -1.484375 1.640625 -2.953125l0.75 0q-0.703125 1.21875 -0.9375 1.734375q-0.359375 0.8125 -0.5625 1.6875q-0.25 1.09375 -0.25 2.203125q0 2.828125 1.75 5.640625l-0.75 0zm2.1054688 -2.53125l0 -8.59375l3.25 0q0.84375 0 1.296875 0.078125q0.640625 0.109375 1.0625 0.40625q0.4375 0.296875 0.6875 0.828125q0.265625 0.53125 0.265625 1.171875q0 1.09375 -0.703125 1.859375q-0.6875 0.75 -2.515625 0.75l-2.203125 0l0 3.5l-1.140625 0zm1.140625 -4.5l2.21875 0q1.109375 0 1.5625 -0.40625q0.46875 -0.421875 0.46875 -1.171875q0 -0.53125 -0.28125 -0.90625q-0.265625 -0.390625 -0.703125 -0.515625q-0.296875 -0.078125 -1.0625 -0.078125l-2.203125 0l0 3.078125zm10.816406 4.5l0 -0.921875q-0.734375 1.0625 -1.984375 1.0625q-0.546875 0 -1.03125 -0.203125q-0.46875 -0.21875 -0.703125 -0.53125q-0.234375 -0.328125 -0.328125 -0.796875q-0.0625 -0.296875 -0.0625 -0.984375l0 -3.84375l1.0625 0l0 3.453125q0 0.8125 0.0625 1.109375q0.09375 0.40625 0.40625 0.65625q0.328125 0.234375 0.8125 0.234375q0.46875 0 0.875 -0.234375q0.421875 -0.25 0.59375 -0.671875q0.1875 -0.421875 0.1875 -1.21875l0 -3.328125l1.046875 0l0 6.21875l-0.9375 0zm2.5644531 0l0 -8.59375l1.0625 0l0 8.59375l-1.0625 0zm2.6660156 0l0 -8.59375l1.0625 0l0 8.59375l-1.0625 0zm2.2753906 -2.578125l0 -1.0625l3.25 0l0 1.0625l-3.25 0zm10.183594 -6.015625l1.140625 0l0 4.96875q0 1.296875 -0.296875 2.0625q-0.296875 0.75 -1.0625 1.234375q-0.765625 0.46875 -2.0 0.46875q-1.203125 0 -1.984375 -0.40625q-0.765625 -0.421875 -1.09375 -1.203125q-0.328125 -0.796875 -0.328125 -2.15625l0 -4.96875l1.140625 0l0 4.953125q0 1.125 0.203125 1.65625q0.21875 0.53125 0.71875 0.828125q0.515625 0.28125 1.25 0.28125q1.25 0 1.78125 -0.5625q0.53125 -0.578125 0.53125 -2.203125l0 -4.953125zm2.9003906 10.984375l0 -8.609375l0.953125 0l0 0.796875q0.34375 -0.46875 0.765625 -0.703125q0.4375 -0.234375 1.046875 -0.234375q0.796875 0 1.40625 0.40625q0.609375 0.40625 0.90625 1.15625q0.3125 0.75 0.3125 1.640625q0 0.953125 -0.34375 1.71875q-0.328125 0.765625 -0.984375 1.171875q-0.65625 0.40625 -1.375 0.40625q-0.53125 0 -0.953125 -0.21875q-0.421875 -0.234375 -0.6875 -0.5625l0 3.03125l-1.046875 0zm0.953125 -5.46875q0 1.203125 0.484375 1.78125q0.484375 0.5625 1.171875 0.5625q0.703125 0 1.203125 -0.59375q0.5 -0.59375 0.5 -1.84375q0 -1.1875 -0.484375 -1.765625q-0.484375 -0.59375 -1.171875 -0.59375q-0.671875 0 -1.1875 0.625q-0.515625 0.625 -0.515625 1.828125zm6.408203 5.609375l-0.75 0q1.75 -2.8125 1.75 -5.640625q0 -1.09375 -0.25 -2.1875q-0.203125 -0.875 -0.5625 -1.6875q-0.234375 -0.515625 -0.9375 -1.75l0.75 0q1.09375 1.46875 1.625 2.953125q0.453125 1.28125 0.453125 2.671875q0 1.578125 -0.609375 3.0625q-0.609375 1.46875 -1.46875 2.578125z" fill-rule="nonzero"/><path fill="#000000" fill-opacity="0.0" d="m458.02362 350.16458l102.834656 0l0 25.228333l-102.834656 0z" fill-rule="evenodd"/><path fill="#000000" d="m459.14862 367.85876l0 -10.484375l3.625 0q1.21875 0 1.859375 0.140625q0.90625 0.203125 1.546875 0.75q0.828125 0.703125 1.234375 1.796875q0.40625 1.09375 0.40625 2.5q0 1.1875 -0.28125 2.109375q-0.265625 0.921875 -0.703125 1.53125q-0.4375 0.609375 -0.96875 0.953125q-0.515625 0.34375 -1.25 0.53125q-0.71875 0.171875 -1.671875 0.171875l-3.796875 0zm1.390625 -1.234375l2.25 0q1.03125 0 1.625 -0.1875q0.59375 -0.203125 0.9375 -0.546875q0.5 -0.5 0.765625 -1.328125q0.28125 -0.84375 0.28125 -2.03125q0 -1.640625 -0.546875 -2.515625q-0.53125 -0.890625 -1.3125 -1.1875q-0.546875 -0.21875 -1.796875 -0.21875l-2.203125 0l0 8.015625zm13.52179 1.234375l-1.28125 0l0 -8.203125q-0.46875 0.4375 -1.21875 0.890625q-0.75 0.4375 -1.359375 0.65625l0 -1.25q1.078125 -0.5 1.890625 -1.21875q0.8125 -0.734375 1.140625 -1.40625l0.828125 0l0 10.53125zm3.3073425 -5.171875q0 -1.859375 0.375 -2.984375q0.390625 -1.140625 1.140625 -1.75q0.765625 -0.625 1.90625 -0.625q0.84375 0 1.46875 0.34375q0.640625 0.328125 1.0625 0.96875q0.421875 0.640625 0.65625 1.5625q0.234375 0.921875 0.234375 2.484375q0 1.84375 -0.390625 2.984375q-0.375 1.125 -1.125 1.75q-0.75 0.609375 -1.90625 0.609375q-1.515625 0 -2.390625 -1.078125q-1.03125 -1.3125 -1.03125 -4.265625zm1.328125 0q0 2.578125 0.59375 3.4375q0.609375 0.859375 1.5 0.859375q0.890625 0 1.484375 -0.859375q0.609375 -0.859375 0.609375 -3.4375q0 -2.59375 -0.609375 -3.4375q-0.59375 -0.859375 -1.5 -0.859375q-0.890625 0 -1.421875 0.75q-0.65625 0.96875 -0.65625 3.546875z" fill-rule="nonzero"/><path fill="#000000" d="m491.0566 370.39q-0.875 -1.109375 -1.484375 -2.578125q-0.59375 -1.484375 -0.59375 -3.0625q0 -1.390625 0.4375 -2.671875q0.53125 -1.484375 1.640625 -2.953125l0.75 0q-0.703125 1.21875 -0.9375 1.734375q-0.359375 0.8125 -0.5625 1.6875q-0.25 1.09375 -0.25 2.203125q0 2.828125 1.75 5.640625l-0.75 0zm2.1054688 -2.53125l0 -8.59375l3.25 0q0.84375 0 1.296875 0.078125q0.640625 0.109375 1.0625 0.40625q0.4375 0.296875 0.6875 0.828125q0.265625 0.53125 0.265625 1.171875q0 1.09375 -0.703125 1.859375q-0.6875 0.75 -2.515625 0.75l-2.203125 0l0 3.5l-1.140625 0zm1.140625 -4.5l2.21875 0q1.109375 0 1.5625 -0.40625q0.46875 -0.421875 0.46875 -1.171875q0 -0.53125 -0.28125 -0.90625q-0.265625 -0.390625 -0.703125 -0.515625q-0.296875 -0.078125 -1.0625 -0.078125l-2.203125 0l0 3.078125zm10.816406 4.5l0 -0.921875q-0.734375 1.0625 -1.984375 1.0625q-0.546875 0 -1.03125 -0.203125q-0.46875 -0.21875 -0.703125 -0.53125q-0.234375 -0.328125 -0.328125 -0.796875q-0.0625 -0.296875 -0.0625 -0.984375l0 -3.84375l1.0625 0l0 3.453125q0 0.8125 0.0625 1.109375q0.09375 0.40625 0.40625 0.65625q0.328125 0.234375 0.8125 0.234375q0.46875 0 0.875 -0.234375q0.421875 -0.25 0.59375 -0.671875q0.1875 -0.421875 0.1875 -1.21875l0 -3.328125l1.046875 0l0 6.21875l-0.9375 0zm2.5644531 0l0 -8.59375l1.0625 0l0 8.59375l-1.0625 0zm2.6660156 0l0 -8.59375l1.0625 0l0 8.59375l-1.0625 0zm2.27536 -2.578125l0 -1.0625l3.25 0l0 1.0625l-3.25 0zm10.183594 -6.015625l1.140625 0l0 4.96875q0 1.296875 -0.296875 2.0625q-0.296875 0.75 -1.0625 1.234375q-0.765625 0.46875 -2.0 0.46875q-1.203125 0 -1.984375 -0.40625q-0.765625 -0.421875 -1.09375 -1.203125q-0.328125 -0.796875 -0.328125 -2.15625l0 -4.96875l1.140625 0l0 4.953125q0 1.125 0.203125 1.65625q0.21875 0.53125 0.71875 0.828125q0.515625 0.28125 1.25 0.28125q1.25 0 1.78125 -0.5625q0.53125 -0.578125 0.53125 -2.203125l0 -4.953125zm2.9003906 10.984375l0 -8.609375l0.953125 0l0 0.796875q0.34375 -0.46875 0.765625 -0.703125q0.4375 -0.234375 1.046875 -0.234375q0.796875 0 1.40625 0.40625q0.609375 0.40625 0.90625 1.15625q0.3125 0.75 0.3125 1.640625q0 0.953125 -0.34375 1.71875q-0.328125 0.765625 -0.984375 1.171875q-0.65625 0.40625 -1.375 0.40625q-0.53125 0 -0.953125 -0.21875q-0.421875 -0.234375 -0.6875 -0.5625l0 3.03125l-1.046875 0zm0.953125 -5.46875q0 1.203125 0.484375 1.78125q0.484375 0.5625 1.171875 0.5625q0.703125 0 1.203125 -0.59375q0.5 -0.59375 0.5 -1.84375q0 -1.1875 -0.484375 -1.765625q-0.484375 -0.59375 -1.171875 -0.59375q-0.671875 0 -1.1875 0.625q-0.515625 0.625 -0.515625 1.828125zm6.408203 5.609375l-0.75 0q1.75 -2.8125 1.75 -5.640625q0 -1.09375 -0.25 -2.1875q-0.203125 -0.875 -0.5625 -1.6875q-0.234375 -0.515625 -0.9375 -1.75l0.75 0q1.09375 1.46875 1.625 2.953125q0.453125 1.28125 0.453125 2.671875q0 1.578125 -0.609375 3.0625q-0.609375 1.46875 -1.46875 2.578125z" fill-rule="nonzero"/><path fill="#000000" fill-opacity="0.0" d="m438.88452 424.19684l126.299194 0l0 25.228363l-126.299194 0z" fill-rule="evenodd"/><path fill="#000000" d="m476.76007 441.89102l4.015625 -10.484375l1.5 0l4.296875 10.484375l-1.578125 0l-1.234375 -3.171875l-4.375 0l-1.15625 3.171875l-1.46875 0zm3.015625 -4.3125l3.5625 0l-1.09375 -2.90625q-0.5 -1.3125 -0.75 -2.171875q-0.203125 1.015625 -0.5625 2.0l-1.15625 3.078125zm7.7287292 4.3125l0 -7.59375l1.15625 0l0 1.140625q0.453125 -0.796875 0.828125 -1.046875q0.375 -0.265625 0.8125 -0.265625q0.65625 0 1.328125 0.40625l-0.4375 1.203125q-0.46875 -0.28125 -0.953125 -0.28125q-0.421875 0 -0.765625 0.25q-0.328125 0.25 -0.46875 0.703125q-0.21875 0.6875 -0.21875 1.5l0 3.984375l-1.28125 0zm9.818146 0l0 -0.953125q-0.71875 1.125 -2.125 1.125q-0.90625 0 -1.671875 -0.5q-0.75 -0.5 -1.171875 -1.390625q-0.421875 -0.90625 -0.421875 -2.078125q0 -1.140625 0.375 -2.0625q0.390625 -0.921875 1.140625 -1.40625q0.765625 -0.5 1.703125 -0.5q0.6875 0 1.21875 0.296875q0.53125 0.28125 0.875 0.734375l0 -3.75l1.28125 0l0 10.484375l-1.203125 0zm-4.0625 -3.796875q0 1.46875 0.609375 2.1875q0.625 0.71875 1.453125 0.71875q0.84375 0 1.4375 -0.6875q0.59375 -0.6875 0.59375 -2.109375q0 -1.5625 -0.609375 -2.28125q-0.59375 -0.734375 -1.484375 -0.734375q-0.84375 0 -1.421875 0.703125q-0.578125 0.703125 -0.578125 2.203125zm12.276123 3.796875l0 -1.109375q-0.890625 1.28125 -2.421875 1.28125q-0.671875 0 -1.25 -0.25q-0.578125 -0.265625 -0.875 -0.65625q-0.28125 -0.390625 -0.390625 -0.953125q-0.078125 -0.375 -0.078125 -1.203125l0 -4.703125l1.28125 0l0 4.203125q0 1.015625 0.078125 1.359375q0.125 0.515625 0.515625 0.8125q0.40625 0.28125 0.984375 0.28125q0.578125 0 1.078125 -0.296875q0.515625 -0.296875 0.71875 -0.8125q0.21875 -0.515625 0.21875 -1.484375l0 -4.0625l1.28125 0l0 7.59375l-1.140625 0zm3.1667175 -9.015625l0 -1.46875l1.296875 0l0 1.46875l-1.296875 0zm0 9.015625l0 -7.59375l1.296875 0l0 7.59375l-1.296875 0zm3.2561646 0l0 -7.59375l1.1562195 0l0 1.078125q0.84375 -1.25 2.421875 -1.25q0.6875 0 1.265625 0.25q0.578125 0.234375 0.859375 0.640625q0.28125 0.40625 0.40625 0.953125q0.0625 0.359375 0.0625 1.25l0 4.671875l-1.28125 0l0 -4.625q0 -0.78125 -0.15625 -1.171875q-0.15625 -0.390625 -0.546875 -0.625q-0.375 -0.234375 -0.890625 -0.234375q-0.8125 0 -1.421875 0.53125q-0.59375 0.515625 -0.59375 1.96875l0 4.15625l-1.2812195 0zm7.6667175 -3.796875q0 -2.109375 1.171875 -3.125q0.984375 -0.84375 2.390625 -0.84375q1.578125 0 2.5625 1.03125q1.0 1.015625 1.0 2.828125q0 1.46875 -0.4375 2.3125q-0.4375 0.828125 -1.28125 1.296875q-0.84375 0.46875 -1.84375 0.46875q-1.59375 0 -2.578125 -1.015625q-0.984375 -1.03125 -0.984375 -2.953125zm1.328125 0q0 1.453125 0.625 2.1875q0.640625 0.71875 1.609375 0.71875q0.96875 0 1.59375 -0.71875q0.640625 -0.734375 0.640625 -2.234375q0 -1.40625 -0.640625 -2.125q-0.640625 -0.734375 -1.59375 -0.734375q-0.96875 0 -1.609375 0.71875q-0.625 0.71875 -0.625 2.1875z" fill-rule="nonzero"/><path fill="#c27ba0" d="m68.286125 170.54068l7.705963 0l1.9265442 1.9265442l0 69.31755l-11.5590515 0l0 -69.31755l0 0c0 -1.0639954 0.8625412 -1.9265442 1.9265442 -1.9265442z" fill-rule="evenodd"/><path stroke="#000000" stroke-width="1.0" stroke-linejoin="round" stroke-linecap="butt" d="m68.286125 170.54068l7.705963 0l1.9265442 1.9265442l0 69.31755l-11.5590515 0l0 -69.31755l0 0c0 -1.0639954 0.8625412 -1.9265442 1.9265442 -1.9265442z" fill-rule="evenodd"/><path fill="#741b47" d="m44.800526 234.2231l54.677166 0l0 11.937012l-54.677166 0z" fill-rule="evenodd"/><path stroke="#000000" stroke-width="1.0" stroke-linejoin="round" stroke-linecap="butt" d="m44.800526 234.2231l54.677166 0l0 11.937012l-54.677166 0z" fill-rule="evenodd"/><path fill="#741b47" d="m44.800526 184.86351l54.677166 0l0 25.228348l-54.677166 0z" fill-rule="evenodd"/><path stroke="#000000" stroke-width="1.0" stroke-linejoin="round" stroke-linecap="butt" d="m44.800526 184.86351l54.677166 0l0 25.228348l-54.677166 0z" fill-rule="evenodd"/><path fill="#000000" fill-opacity="0.0" d="m107.27428 291.33597l0 -130.67717l25.88977 0l0 130.67717z" fill-rule="evenodd"/><path fill="#000000" d="m121.95666 280.9679l-0.109375 -1.203125q0.71875 -0.078125 1.1875 -0.390625q0.453125 -0.3125 0.734375 -0.953125q0.28125 -0.65625 0.28125 -1.46875q0 -0.71875 -0.21875 -1.265625q-0.21875 -0.5625 -0.578125 -0.828125q-0.375 -0.265625 -0.828125 -0.265625q-0.453125 0 -0.78125 0.265625q-0.328125 0.25 -0.5625 0.84375q-0.15625 0.390625 -0.46875 1.703125q-0.3125 1.3125 -0.59375 1.84375q-0.359375 0.671875 -0.890625 1.015625q-0.53125 0.328125 -1.1875 0.328125q-0.71875 0 -1.34375 -0.40625q-0.625 -0.40625 -0.953125 -1.1875q-0.328125 -0.796875 -0.328125 -1.765625q0 -1.046875 0.34375 -1.859375q0.34375 -0.8125 1.015625 -1.25q0.65625 -0.4375 1.484375 -0.46875l0.09375 1.203125q-0.90625 0.109375 -1.359375 0.671875q-0.46875 0.5625 -0.46875 1.65625q0 1.140625 0.421875 1.671875q0.421875 0.515625 1.015625 0.515625q0.515625 0 0.84375 -0.359375q0.328125 -0.375 0.6875 -1.90625q0.34375 -1.546875 0.59375 -2.109375q0.390625 -0.84375 0.984375 -1.234375q0.578125 -0.390625 1.359375 -0.390625q0.75 0 1.4375 0.4375q0.671875 0.421875 1.046875 1.25q0.359375 0.8125 0.359375 1.828125q0 1.296875 -0.375 2.171875q-0.375 0.875 -1.125 1.375q-0.765625 0.5 -1.71875 0.53125zm0.84375 -13.905365l0.140625 -1.203125q1.0625 0.28125 1.65625 1.0625q0.578125 0.765625 0.578125 1.96875q0 1.515625 -0.9375 2.40625q-0.9375 0.890625 -2.609375 0.890625q-1.75 0 -2.703125 -0.890625q-0.96875 -0.90625 -0.96875 -2.34375q0 -1.390625 0.9375 -2.265625q0.9375 -0.875 2.65625 -0.875q0.109375 0 0.3125 0l0 5.15625q1.140625 -0.0625 1.75 -0.640625q0.59375 -0.578125 0.59375 -1.4375q0 -0.65625 -0.328125 -1.109375q-0.34375 -0.453125 -1.078125 -0.71875zm-1.90625 3.84375l0 -3.859375q-0.859375 0.078125 -1.296875 0.4375q-0.6875 0.5625 -0.6875 1.453125q0 0.8125 0.546875 1.359375q0.53125 0.546875 1.4375 0.609375zm4.125 -6.5218506l-6.90625 0l0 -1.0625l0.984375 0q-1.140625 -0.75 -1.140625 -2.1875q0 -0.625 0.21875 -1.15625q0.21875 -0.53125 0.59375 -0.78125q0.359375 -0.265625 0.859375 -0.375q0.328125 -0.0625 1.140625 -0.0625l4.25 0l0 1.171875l-4.203125 0q-0.71875 0 -1.0625 0.140625q-0.359375 0.140625 -0.5625 0.484375q-0.21875 0.34375 -0.21875 0.8125q0 0.75 0.46875 1.296875q0.46875 0.546875 1.796875 0.546875l3.78125 0l0 1.171875zm-2.0625 -6.9437256l-0.1875 -1.15625q0.703125 -0.109375 1.078125 -0.54689026q0.359375 -0.453125 0.359375 -1.25q0 -0.8125 -0.328125 -1.203125q-0.328125 -0.390625 -0.765625 -0.390625q-0.390625 0 -0.625 0.359375q-0.15625 0.234375 -0.390625 1.1875q-0.328125 1.296875 -0.5625 1.7968903q-0.25 0.484375 -0.65625 0.75q-0.421875 0.25 -0.9375 0.25q-0.453125 0 -0.84375 -0.203125q-0.40625 -0.21875 -0.671875 -0.578125q-0.1875 -0.28125 -0.328125 -0.75001526q-0.140625 -0.46875 -0.140625 -1.015625q0 -0.8125 0.234375 -1.421875q0.234375 -0.609375 0.640625 -0.90625q0.390625 -0.296875 1.0625 -0.40625l0.15625 1.140625q-0.53125 0.078125 -0.828125 0.453125q-0.3125 0.375 -0.3125 1.0625q0 0.8125 0.265625 1.15625q0.265625 0.34376526 0.625 0.34376526q0.234375 0 0.421875 -0.14064026q0.1875 -0.15625 0.3125 -0.453125q0.0625 -0.171875 0.296875 -1.03125q0.328125 -1.25 0.546875 -1.734375q0.203125 -0.5 0.609375 -0.78125q0.40625 -0.28125 1.0 -0.28125q0.59375 0 1.109375 0.34375q0.515625 0.34375 0.796875 1.0q0.28125 0.640625 0.28125 1.453125q0 1.34375 -0.5625 2.0468903q-0.5625 0.703125 -1.65625 0.90625zm-1.390625 -6.6953278q-1.921875 0 -2.84375 -1.078125q-0.765625 -0.890625 -0.765625 -2.171875q0 -1.421875 0.9375 -2.328125q0.921875 -0.90625 2.578125 -0.90625q1.328125 0 2.09375 0.40625q0.765625 0.390625 1.1875 1.15625q0.421875 0.765625 0.421875 1.671875q0 1.453125 -0.921875 2.359375q-0.9375 0.890625 -2.6875 0.890625zm0 -1.203125q1.328125 0 1.984375 -0.578125q0.65625 -0.59375 0.65625 -1.46875q0 -0.875 -0.65625 -1.453125q-0.671875 -0.578125 -2.03125 -0.578125q-1.28125 0 -1.9375 0.59375q-0.65625 0.578125 -0.65625 1.4375q0 0.875 0.65625 1.46875q0.65625 0.578125 1.984375 0.578125zm3.453125 -6.6312256l-6.90625 0l0 -1.0625l1.046875 0q-0.734375 -0.40625 -0.96875 -0.734375q-0.234375 -0.34375 -0.234375 -0.765625q0 -0.59375 0.375 -1.203125l1.078125 0.40625q-0.25 0.4375 -0.25 0.859375q0 0.390625 0.234375 0.703125q0.234375 0.296875 0.640625 0.421875q0.625 0.203125 1.359375 0.203125l3.625 0l0 1.171875zm0 -8.297607l-9.546875 0l0 -1.296875l7.5 -5.015625l-7.5 0l0 -1.203125l9.546875 0l0 1.296875l-7.5 5.015625l7.5 0l0 1.203125zm0 -9.890778l-6.90625 0l0 -1.171875l6.90625 0l0 1.171875zm-7.765625 -0.15625l-1.828125 -0.875l0 -1.53125l1.828125 1.421875l0 0.984375zm7.765625 -5.0623627l-6.90625 2.625l0 -1.234375l4.140625 -1.484375q0.65625 -0.234375 1.390625 -0.4375q-0.546875 -0.15625 -1.3125 -0.4375l-4.21875 -1.53125l0 -1.21875l6.90625 2.625l0 1.09375zm-2.21875 -9.4765625l0.140625 -1.203125q1.0625 0.28125 1.65625 1.0625q0.578125 0.765625 0.578125 1.96875q0 1.515625 -0.9375 2.40625q-0.9375 0.890625 -2.609375 0.890625q-1.75 0 -2.703125 -0.890625q-0.96875 -0.90625 -0.96875 -2.34375q0 -1.390625 0.9375 -2.265625q0.9375 -0.875 2.65625 -0.875q0.109375 0 0.3125 0l0 5.15625q1.140625 -0.0625 1.75 -0.640625q0.59375 -0.578125 0.59375 -1.4375q0 -0.65625 -0.328125 -1.109375q-0.34375 -0.453125 -1.078125 -0.71875zm-1.90625 3.84375l0 -3.859375q-0.859375 0.078125 -1.296875 0.4375q-0.6875 0.5625 -0.6875 1.453125q0 0.8125 0.546875 1.359375q0.53125 0.546875 1.4375 0.609375zm4.125 -6.5062256l-9.546875 0l0 -1.171875l9.546875 0l0 1.171875zm0 -5.7890778l-9.546875 -3.65625l0 -1.359375l9.546875 -3.90625l0 1.4375l-2.890625 1.109375l0 3.984375l2.890625 1.046875l0 1.34375zm-3.921875 -2.75l0 -3.234375l-2.640625 1.0q-1.203125 0.453125 -1.96875 0.671875q0.90625 0.1875 1.8125 0.515625l2.796875 1.046875zm-5.84375 -0.703125l-1.828125 -0.875l0 -1.53125l1.828125 1.421875l0 0.984375zm10.34375 -6.1085052l0.15625 -1.140625q0.53125 -0.078125 0.78125 -0.40625q0.3125 -0.4375 0.3125 -1.1875q0 -0.8125 -0.328125 -1.25q-0.3125 -0.453125 -0.90625 -0.609375q-0.359375 -0.09375 -1.5 -0.078125q0.90625 0.765625 0.90625 1.90625q0 1.4375 -1.03125 2.21875q-1.03125 0.78125 -2.46875 0.78125q-0.984375 0 -1.8125 -0.359375q-0.84375 -0.359375 -1.296875 -1.03125q-0.453125 -0.6875 -0.453125 -1.609375q0 -1.21875 0.984375 -2.015625l-0.828125 0l0 -1.078125l5.96875 0q1.609375 0 2.28125 0.328125q0.6875 0.328125 1.078125 1.046875q0.390625 0.703125 0.390625 1.75q0 1.234375 -0.5625 2.0q-0.5625 0.75 -1.671875 0.734375zm-4.15625 -0.984375q1.359375 0 1.984375 -0.53125q0.625 -0.546875 0.625 -1.359375q0 -0.796875 -0.625 -1.34375q-0.625 -0.546875 -1.953125 -0.546875q-1.265625 0 -1.90625 0.5625q-0.640625 0.5625 -0.640625 1.359375q0 0.765625 0.640625 1.3125q0.625 0.546875 1.875 0.546875zm3.578125 -11.178101l-1.015625 0q1.171875 0.8125 1.171875 2.1875q0 0.609375 -0.234375 1.140625q-0.234375 0.53125 -0.578125 0.796875q-0.359375 0.25 -0.875 0.359375q-0.34375 0.0625 -1.09375 0.0625l-4.28125 0l0 -1.171875l3.828125 0q0.921875 0 1.234375 -0.0625q0.46875 -0.109375 0.734375 -0.46875q0.25 -0.359375 0.25 -0.890625q0 -0.515625 -0.265625 -0.984375q-0.265625 -0.46875 -0.734375 -0.65625q-0.46875 -0.1875 -1.34375 -0.1875l-3.703125 0l0 -1.171875l6.90625 0l0 1.046875zm-0.859375 -7.3968506q0.5625 0.65625 0.796875 1.265625q0.21875 0.59375 0.21875 1.28125q0 1.140625 -0.546875 1.75q-0.5625 0.609375 -1.4375 0.609375q-0.5 0 -0.921875 -0.21875q-0.421875 -0.234375 -0.671875 -0.609375q-0.25 -0.375 -0.390625 -0.84375q-0.078125 -0.34375 -0.171875 -1.046875q-0.171875 -1.421875 -0.40625 -2.09375q-0.234375 0 -0.296875 0q-0.71875 0 -1.015625 0.328125q-0.390625 0.453125 -0.390625 1.34375q0 0.8125 0.296875 1.21875q0.28125 0.390625 1.015625 0.578125l-0.15625 1.140625q-0.734375 -0.15625 -1.1875 -0.515625q-0.453125 -0.359375 -0.6875 -1.03125q-0.25 -0.671875 -0.25 -1.5625q0 -0.890625 0.203125 -1.4375q0.203125 -0.5625 0.53125 -0.8125q0.3125 -0.265625 0.796875 -0.375q0.296875 -0.046875 1.078125 -0.046875l1.5625 0q1.625 0 2.0625 -0.078125q0.4375 -0.078125 0.828125 -0.296875l0 1.21875q-0.359375 0.1875 -0.859375 0.234375zm-2.609375 0.09375q0.265625 0.640625 0.4375 1.921875q0.109375 0.71875 0.25 1.015625q0.125 0.296875 0.375 0.46875q0.25 0.15625 0.546875 0.15625q0.46875 0 0.78125 -0.34375q0.3125 -0.359375 0.3125 -1.046875q0 -0.671875 -0.296875 -1.203125q-0.296875 -0.53125 -0.8125 -0.78125q-0.390625 -0.1875 -1.171875 -0.1875l-0.421875 0z" fill-rule="nonzero"/><path fill="#000000" fill-opacity="0.0" d="m86.38058 256.0656l0 106.58267l339.27557 0" fill-rule="evenodd"/><path stroke="#a64d79" stroke-width="1.0" stroke-linejoin="round" stroke-linecap="butt" d="m86.38058 256.0656l0 106.58267l339.27557 0" fill-rule="evenodd"/><path fill="#666666" d="m425.65222 395.83087l28.094482 0l0 5.3228455l-28.094482 0z" fill-rule="evenodd"/><path stroke="#000000" stroke-width="1.0" stroke-linejoin="round" stroke-linecap="butt" d="m425.65222 395.83087l28.094482 0l0 5.3228455l-28.094482 0z" fill-rule="evenodd"/><path fill="#000000" fill-opacity="0.0" d="m458.02362 385.87927l45.102356 0l0 25.228333l-45.102356 0z" fill-rule="evenodd"/><path fill="#000000" d="m463.97675 399.71405l0 -1.765625l4.5625 0l0 4.171875q-0.671875 0.65625 -1.9375 1.140625q-1.25 0.484375 -2.546875 0.484375q-1.65625 0 -2.875 -0.6875q-1.21875 -0.6875 -1.84375 -1.96875q-0.609375 -1.28125 -0.609375 -2.796875q0 -1.640625 0.6875 -2.90625q0.6875 -1.28125 2.015625 -1.953125q1.0 -0.53125 2.5 -0.53125q1.953125 0 3.046875 0.828125q1.109375 0.8125 1.421875 2.265625l-2.109375 0.390625q-0.21875 -0.78125 -0.828125 -1.21875q-0.609375 -0.453125 -1.53125 -0.453125q-1.390625 0 -2.203125 0.890625q-0.8125 0.875 -0.8125 2.59375q0 1.875 0.828125 2.8125q0.828125 0.9375 2.171875 0.9375q0.671875 0 1.328125 -0.265625q0.671875 -0.265625 1.15625 -0.640625l0 -1.328125l-2.421875 0zm6.5407104 3.859375l0 -10.484375l2.0625 0l4.28125 7.0l0 -7.0l1.96875 0l0 10.484375l-2.125 0l-4.21875 -6.84375l0 6.84375l-1.96875 0zm10.55304 -10.484375l3.875 0q1.296875 0 1.984375 0.1875q0.921875 0.28125 1.578125 0.984375q0.671875 0.6875 1.015625 1.6875q0.34375 1.0 0.34375 2.484375q0 1.296875 -0.328125 2.234375q-0.390625 1.140625 -1.125 1.84375q-0.546875 0.546875 -1.484375 0.84375q-0.703125 0.21875 -1.875 0.21875l-3.984375 0l0 -10.484375zm2.109375 1.765625l0 6.953125l1.59375 0q0.875 0 1.28125 -0.109375q0.515625 -0.125 0.84375 -0.421875q0.34375 -0.3125 0.5625 -1.015625q0.21875 -0.703125 0.21875 -1.921875q0 -1.21875 -0.21875 -1.859375q-0.21875 -0.65625 -0.609375 -1.015625q-0.375 -0.375 -0.96875 -0.5q-0.453125 -0.109375 -1.75 -0.109375l-0.953125 0z" fill-rule="nonzero"/><path fill="#000000" fill-opacity="0.0" d="m56.889763 256.0656l0 142.4252l368.7559 0" fill-rule="evenodd"/><path stroke="#000000" stroke-width="1.0" stroke-linejoin="round" stroke-linecap="butt" d="m56.889763 256.0656l0 142.4252l368.7559 0" fill-rule="evenodd"/><path fill="#e69138" d="m182.19423 206.16273l0 0c0 -16.585938 13.445557 -30.031494 30.031494 -30.031494l0 0c7.9648438 0 15.60347 3.1640167 21.235474 8.7960205c5.632004 5.6319885 8.7960205 13.270615 8.7960205 21.235474l0 0c0 16.585938 -13.445557 30.031494 -30.031494 30.031494l0 0c-16.585938 0 -30.031494 -13.445557 -30.031494 -30.031494z" fill-rule="evenodd"/><path stroke="#000000" stroke-width="1.0" stroke-linejoin="round" stroke-linecap="butt" d="m182.19423 206.16273l0 0c0 -16.585938 13.445557 -30.031494 30.031494 -30.031494l0 0c7.9648438 0 15.60347 3.1640167 21.235474 8.7960205c5.632004 5.6319885 8.7960205 13.270615 8.7960205 21.235474l0 0c0 16.585938 -13.445557 30.031494 -30.031494 30.031494l0 0c-16.585938 0 -30.031494 -13.445557 -30.031494 -30.031494z" fill-rule="evenodd"/><path fill="#ff9900" d="m187.85548 206.17044l0 0c0 -13.463562 10.914383 -24.377945 24.377945 -24.377945l0 0c6.465439 0 12.666061 2.5683746 17.237823 7.1401367c4.571747 4.571747 7.1401367 10.772369 7.1401367 17.237808l0 0c0 13.463577 -10.914383 24.37796 -24.37796 24.37796l0 0c-13.463562 0 -24.377945 -10.914383 -24.377945 -24.37796z" fill-rule="evenodd"/><path stroke="#000000" stroke-width="1.0" stroke-linejoin="round" stroke-linecap="butt" d="m187.85548 206.17044l0 0c0 -13.463562 10.914383 -24.377945 24.377945 -24.377945l0 0c6.465439 0 12.666061 2.5683746 17.237823 7.1401367c4.571747 4.571747 7.1401367 10.772369 7.1401367 17.237808l0 0c0 13.463577 -10.914383 24.37796 -24.37796 24.37796l0 0c-13.463562 0 -24.377945 -10.914383 -24.377945 -24.37796z" fill-rule="evenodd"/><path fill="#000000" fill-opacity="0.0" d="m249.62204 260.29135l0 -94.99214l25.88977 0l0 94.99214z" fill-rule="evenodd"/><path fill="#000000" d="m267.3669 245.1664l-9.546875 0l0 -3.59375q0 -1.09375 0.296875 -1.75q0.28125 -0.65625 0.890625 -1.03125q0.609375 -0.375 1.265625 -0.375q0.609375 0 1.15625 0.34375q0.53125 0.328125 0.859375 0.984375q0.25 -0.859375 0.875 -1.328125q0.609375 -0.46875 1.4375 -0.46875q0.671875 0 1.25 0.296875q0.578125 0.28125 0.890625 0.703125q0.3125 0.40625 0.46875 1.03125q0.15625 0.625 0.15625 1.546875l0 3.640625zm-5.53125 -1.265625l0 -2.0625q0 -0.84375 -0.109375 -1.203125q-0.140625 -0.484375 -0.46875 -0.71875q-0.34375 -0.25 -0.84375 -0.25q-0.46875 0 -0.828125 0.234375q-0.359375 0.21875 -0.5 0.640625q-0.140625 0.421875 -0.140625 1.453125l0 1.90625l2.890625 0zm4.40625 0l0 -2.375q0 -0.609375 -0.046875 -0.859375q-0.078125 -0.4375 -0.25 -0.734375q-0.1875 -0.296875 -0.53125 -0.484375q-0.359375 -0.1875 -0.8125 -0.1875q-0.53125 0 -0.921875 0.28125q-0.40625 0.265625 -0.5625 0.75q-0.15625 0.484375 -0.15625 1.40625l0 2.203125l3.28125 0zm-2.328125 -7.0928802q-1.921875 0 -2.84375 -1.078125q-0.765625 -0.890625 -0.765625 -2.171875q0 -1.421875 0.9375 -2.328125q0.921875 -0.90625 2.578125 -0.90625q1.328125 0 2.09375 0.40625q0.765625 0.390625 1.1875 1.15625q0.421875 0.765625 0.421875 1.671875q0 1.453125 -0.921875 2.359375q-0.9375 0.890625 -2.6875 0.890625zm0 -1.203125q1.328125 0 1.984375 -0.578125q0.65625 -0.59375 0.65625 -1.46875q0 -0.875 -0.65625 -1.453125q-0.671875 -0.578125 -2.03125 -0.578125q-1.28125 0 -1.9375 0.59375q-0.65625 0.578125 -0.65625 1.4375q0 0.875 0.65625 1.46875q0.65625 0.578125 1.984375 0.578125zm2.40625 -9.209351l1.03125 -0.171875q0.109375 0.5 0.109375 0.890625q0 0.640625 -0.203125 1.0q-0.203125 0.34375 -0.53125 0.484375q-0.328125 0.140625 -1.390625 0.140625l-3.96875 0l0 0.859375l-0.90625 0l0 -0.859375l-1.71875 0l-0.703125 -1.171875l2.421875 0l0 -1.171875l0.90625 0l0 1.171875l4.046875 0q0.5 0 0.640625 -0.046875q0.140625 -0.0625 0.234375 -0.203125q0.078125 -0.140625 0.078125 -0.40625q0 -0.203125 -0.046875 -0.515625zm0.1875 -5.6561127q0.5625 0.65625 0.796875 1.265625q0.21875 0.59375 0.21875 1.28125q0 1.140625 -0.546875 1.75q-0.5625 0.609375 -1.4375 0.609375q-0.5 0 -0.921875 -0.21875q-0.421875 -0.234375 -0.671875 -0.609375q-0.25 -0.375 -0.390625 -0.84375q-0.078125 -0.34375 -0.171875 -1.046875q-0.171875 -1.421875 -0.40625 -2.09375q-0.234375 0 -0.296875 0q-0.71875 0 -1.015625 0.328125q-0.390625 0.453125 -0.390625 1.34375q0 0.8125 0.296875 1.21875q0.28125 0.390625 1.015625 0.578125l-0.15625 1.140625q-0.734375 -0.15625 -1.1875 -0.515625q-0.453125 -0.359375 -0.6875 -1.03125q-0.25 -0.671875 -0.25 -1.5625q0 -0.890625 0.203125 -1.4375q0.203125 -0.5625 0.53125 -0.8125q0.3125 -0.265625 0.796875 -0.375q0.296875 -0.046875 1.078125 -0.046875l1.5625 0q1.625 0 2.0625 -0.078125q0.4375 -0.078125 0.828125 -0.296875l0 1.21875q-0.359375 0.1875 -0.859375 0.234375zm-2.609375 0.09375q0.265625 0.640625 0.4375 1.921875q0.109375 0.71875 0.25 1.015625q0.125 0.296875 0.375 0.46875q0.25 0.15625 0.546875 0.15625q0.46875 0 0.78125 -0.34375q0.3125 -0.359375 0.3125 -1.046875q0 -0.671875 -0.296875 -1.203125q-0.296875 -0.53125 -0.8125 -0.78125q-0.390625 -0.1875 -1.171875 -0.1875l-0.421875 0zm-4.46875 4.25q-0.671875 0.015625 -1.078125 -0.375q-0.40625 -0.359375 -0.40625 -0.9375q0 -0.40625 0.359375 -1.109375q0.1875 -0.375 0.1875 -0.609375q0 -0.203125 -0.109375 -0.3125q-0.109375 -0.109375 -0.453125 -0.15625l0 -0.859375q0.75 0.03125 1.125 0.390625q0.359375 0.34375 0.359375 0.890625q0 0.40625 -0.359375 1.078125q-0.234375 0.4375 -0.234375 0.640625q0 0.21875 0.15625 0.359375q0.15625 0.140625 0.453125 0.140625l0 0.859375zm4.484375 -6.8031006q-1.921875 0 -2.84375 -1.078125q-0.765625 -0.890625 -0.765625 -2.171875q0 -1.421875 0.9375 -2.328125q0.921875 -0.90625 2.578125 -0.90625q1.328125 0 2.09375 0.40625q0.765625 0.390625 1.1875 1.15625q0.421875 0.765625 0.421875 1.671875q0 1.453125 -0.921875 2.359375q-0.9375 0.890625 -2.6875 0.890625zm0 -1.203125q1.328125 0 1.984375 -0.578125q0.65625 -0.59375 0.65625 -1.46875q0 -0.875 -0.65625 -1.453125q-0.671875 -0.578125 -2.03125 -0.578125q-1.28125 0 -1.9375 0.59375q-0.65625 0.578125 -0.65625 1.4375q0 0.875 0.65625 1.46875q0.65625 0.578125 1.984375 0.578125zm0.390625 -10.068588l-0.109375 -1.203125q0.71875 -0.078125 1.1875 -0.390625q0.453125 -0.3125 0.734375 -0.953125q0.28125 -0.65625 0.28125 -1.46875q0 -0.71875 -0.21875 -1.265625q-0.21875 -0.5625 -0.578125 -0.828125q-0.375 -0.265625 -0.828125 -0.265625q-0.453125 0 -0.78125 0.265625q-0.328125 0.25 -0.5625 0.84375q-0.15625 0.390625 -0.46875 1.703125q-0.3125 1.3125 -0.59375 1.84375q-0.359375 0.671875 -0.890625 1.015625q-0.53125 0.328125 -1.1875 0.328125q-0.71875 0 -1.34375 -0.40625q-0.625 -0.40625 -0.953125 -1.1875q-0.328125 -0.796875 -0.328125 -1.765625q0 -1.046875 0.34375 -1.859375q0.34375 -0.8125 1.015625 -1.25q0.65625 -0.4375 1.484375 -0.46875l0.09375 1.203125q-0.90625 0.109375 -1.359375 0.671875q-0.46875 0.5625 -0.46875 1.65625q0 1.140625 0.421875 1.671875q0.421875 0.515625 1.015625 0.515625q0.515625 0 0.84375 -0.359375q0.328125 -0.375 0.6875 -1.90625q0.34375 -1.546875 0.59375 -2.109375q0.390625 -0.84375 0.984375 -1.234375q0.578125 -0.390625 1.359375 -0.390625q0.75 0 1.4375 0.4375q0.671875 0.421875 1.046875 1.25q0.359375 0.8125 0.359375 1.828125q0 1.296875 -0.375 2.171875q-0.375 0.875 -1.125 1.375q-0.765625 0.5 -1.71875 0.53125zm2.015625 -11.733505l1.03125 -0.171875q0.109375 0.5 0.109375 0.890625q0 0.640625 -0.203125 1.0q-0.203125 0.34375 -0.53125 0.484375q-0.328125 0.140625 -1.390625 0.140625l-3.96875 0l0 0.859375l-0.90625 0l0 -0.859375l-1.71875 0l-0.703125 -1.171875l2.421875 0l0 -1.171875l0.90625 0l0 1.171875l4.046875 0q0.5 0 0.640625 -0.046875q0.140625 -0.0625 0.234375 -0.203125q0.078125 -0.140625 0.078125 -0.40625q0 -0.203125 -0.046875 -0.515625zm0.1875 -5.6561127q0.5625 0.65625 0.796875 1.265625q0.21875 0.59375 0.21875 1.28125q0 1.140625 -0.546875 1.75q-0.5625 0.609375 -1.4375 0.609375q-0.5 0 -0.921875 -0.21875q-0.421875 -0.234375 -0.671875 -0.609375q-0.25 -0.375 -0.390625 -0.84375q-0.078125 -0.34375 -0.171875 -1.046875q-0.171875 -1.421875 -0.40625 -2.09375q-0.234375 0 -0.296875 0q-0.71875 0 -1.015625 0.328125q-0.390625 0.453125 -0.390625 1.34375q0 0.8125 0.296875 1.21875q0.28125 0.390625 1.015625 0.578125l-0.15625 1.140625q-0.734375 -0.15625 -1.1875 -0.515625q-0.453125 -0.359375 -0.6875 -1.03125q-0.25 -0.671875 -0.25 -1.5625q0 -0.890625 0.203125 -1.4375q0.203125 -0.5625 0.53125 -0.8125q0.3125 -0.265625 0.796875 -0.375q0.296875 -0.046875 1.078125 -0.046875l1.5625 0q1.625 0 2.0625 -0.078125q0.4375 -0.078125 0.828125 -0.296875l0 1.21875q-0.359375 0.1875 -0.859375 0.234375zm-2.609375 0.09375q0.265625 0.640625 0.4375 1.921875q0.109375 0.71875 0.25 1.015625q0.125 0.296875 0.375 0.46875q0.25 0.15625 0.546875 0.15625q0.46875 0 0.78125 -0.34375q0.3125 -0.359375 0.3125 -1.046875q0 -0.671875 -0.296875 -1.203125q-0.296875 -0.53125 -0.8125 -0.78125q-0.390625 -0.1875 -1.171875 -0.1875l-0.421875 0zm3.46875 -2.9749756l-6.90625 0l0 -1.0625l1.046875 0q-0.734375 -0.40625 -0.96875 -0.734375q-0.234375 -0.34375 -0.234375 -0.765625q0 -0.59375 0.375 -1.203125l1.078125 0.40625q-0.25 0.4375 -0.25 0.859375q0 0.390625 0.234375 0.703125q0.234375 0.296875 0.640625 0.421875q0.625 0.203125 1.359375 0.203125l3.625 0l0 1.171875zm-1.046875 -7.0164948l1.03125 -0.171875q0.109375 0.5 0.109375 0.890625q0 0.640625 -0.203125 1.0q-0.203125 0.34375 -0.53125 0.484375q-0.328125 0.140625 -1.390625 0.140625l-3.96875 0l0 0.859375l-0.90625 0l0 -0.859375l-1.71875 0l-0.703125 -1.171875l2.421875 0l0 -1.171875l0.90625 0l0 1.171875l4.046875 0q0.5 0 0.640625 -0.046875q0.140625 -0.0625 0.234375 -0.203125q0.078125 -0.140625 0.078125 -0.40625q0 -0.203125 -0.046875 -0.515625z" fill-rule="nonzero"/><path fill="#000000" fill-opacity="0.0" d="m425.65222 335.04846l-203.937 0l0 -90.33072" fill-rule="evenodd"/><path stroke="#ff9900" stroke-width="1.0" stroke-linejoin="round" stroke-linecap="butt" d="m425.65222 335.04846l-203.937 0l0 -90.33072" fill-rule="evenodd"/><path fill="#000000" fill-opacity="0.0" d="m200.88977 244.30545l0 154.17322l224.75589 0" fill-rule="evenodd"/><path stroke="#000000" stroke-width="1.0" stroke-linejoin="round" stroke-linecap="butt" d="m200.88977 244.30545l0 154.17322l224.75589 0" fill-rule="evenodd"/><path fill="#e06666" d="m606.83203 245.3937l0 0l0 0c3.725525 0 7.298523 1.4799652 9.932861 4.114334c2.6343994 2.634369 4.11438 6.2073364 4.11438 9.932907l0 22.047241c0 1.2207031E-4 -1.2207031E-4 2.4414062E-4 -2.4414062E-4 2.4414062E-4l-28.094238 -2.4414062E-4l0 0c-1.2207031E-4 0 -2.4414062E-4 -9.1552734E-5 -2.4414062E-4 -2.4414062E-4l2.4414062E-4 -22.046997l0 0c0 -7.758087 6.2891235 -14.047241 14.047241 -14.047241z" fill-rule="evenodd"/><path stroke="#000000" stroke-width="1.0" stroke-linejoin="round" stroke-linecap="butt" d="m606.83203 245.3937l0 0l0 0c3.725525 0 7.298523 1.4799652 9.932861 4.114334c2.6343994 2.634369 4.11438 6.2073364 4.11438 9.932907l0 22.047241c0 1.2207031E-4 -1.2207031E-4 2.4414062E-4 -2.4414062E-4 2.4414062E-4l-28.094238 -2.4414062E-4l0 0c-1.2207031E-4 0 -2.4414062E-4 -9.1552734E-5 -2.4414062E-4 -2.4414062E-4l2.4414062E-4 -22.046997l0 0c0 -7.758087 6.2891235 -14.047241 14.047241 -14.047241z" fill-rule="evenodd"/><path fill="#666666" d="m550.4554 395.83087l28.094482 0l0 5.3228455l-28.094482 0z" fill-rule="evenodd"/><path stroke="#000000" stroke-width="1.0" stroke-linejoin="round" stroke-linecap="butt" d="m550.4554 395.83087l28.094482 0l0 5.3228455l-28.094482 0z" fill-rule="evenodd"/><path fill="#000000" fill-opacity="0.0" d="m498.87924 385.87927l45.102386 0l0 25.228333l-45.102386 0z" fill-rule="evenodd"/><path fill="#000000" d="m517.3661 399.71405l0 -1.765625l4.5625 0l0 4.171875q-0.671875 0.65625 -1.9375 1.140625q-1.25 0.484375 -2.546875 0.484375q-1.65625 0 -2.875 -0.6875q-1.21875 -0.6875 -1.84375 -1.96875q-0.609375 -1.28125 -0.609375 -2.796875q0 -1.640625 0.6875 -2.90625q0.6875 -1.28125 2.015625 -1.953125q1.0 -0.53125 2.5 -0.53125q1.953125 0 3.046875 0.828125q1.109375 0.8125 1.421875 2.265625l-2.109375 0.390625q-0.21875 -0.78125 -0.828125 -1.21875q-0.609375 -0.453125 -1.53125 -0.453125q-1.390625 0 -2.203125 0.890625q-0.8125 0.875 -0.8125 2.59375q0 1.875 0.828125 2.8125q0.828125 0.9375 2.171875 0.9375q0.671875 0 1.328125 -0.265625q0.671875 -0.265625 1.15625 -0.640625l0 -1.328125l-2.421875 0zm6.5407104 3.859375l0 -10.484375l2.0625 0l4.28125 7.0l0 -7.0l1.96875 0l0 10.484375l-2.125 0l-4.21875 -6.84375l0 6.84375l-1.96875 0zm10.55304 -10.484375l3.875 0q1.296875 0 1.984375 0.1875q0.921875 0.28125 1.578125 0.984375q0.671875 0.6875 1.015625 1.6875q0.34375 1.0 0.34375 2.484375q0 1.296875 -0.328125 2.234375q-0.390625 1.140625 -1.125 1.84375q-0.546875 0.546875 -1.484375 0.84375q-0.703125 0.21875 -1.875 0.21875l-3.984375 0l0 -10.484375zm2.109375 1.765625l0 6.953125l1.59375 0q0.875 0 1.28125 -0.109375q0.515625 -0.125 0.84375 -0.421875q0.34375 -0.3125 0.5625 -1.015625q0.21875 -0.703125 0.21875 -1.921875q0 -1.21875 -0.21875 -1.859375q-0.21875 -0.65625 -0.609375 -1.015625q-0.375 -0.375 -0.96875 -0.5q-0.453125 -0.109375 -1.75 -0.109375l-0.953125 0z" fill-rule="nonzero"/><path fill="#000000" fill-opacity="0.0" d="m578.54987 312.19254l21.921265 0l0 -9.070862" fill-rule="evenodd"/><path stroke="#cc0000" stroke-width="1.0" stroke-linejoin="round" stroke-linecap="butt" d="m578.54987 312.19254l21.921265 0l0 -9.070862" fill-rule="evenodd"/><path fill="#000000" fill-opacity="0.0" d="m614.3582 289.73227l0 108.75592l-35.811035 0" fill-rule="evenodd"/><path stroke="#000000" stroke-width="1.0" stroke-linejoin="round" stroke-linecap="butt" d="m614.3582 289.73227l0 108.75592l-35.811035 0" fill-rule="evenodd"/><path fill="#b6d7a8" d="m691.4803 180.50656l106.39374 0l0 60.06299l-106.39374 0z" fill-rule="evenodd"/><path stroke="#000000" stroke-width="1.0" stroke-linejoin="round" stroke-linecap="butt" d="m691.4803 180.50656l106.39374 0l0 60.06299l-106.39374 0z" fill-rule="evenodd"/><path fill="#cfe2f3" d="m785.977 405.71994l0 0c0 -26.287048 20.168335 -47.596924 45.04724 -47.596924l0 0c11.947266 0 23.405212 5.0146484 31.85321 13.940826c8.447998 8.926147 13.194031 21.032593 13.194031 33.656097l0 0c0 26.287048 -20.168335 47.596924 -45.04724 47.596924l0 0c-24.878906 0 -45.04724 -21.309875 -45.04724 -47.596924z" fill-rule="evenodd"/><path stroke="#000000" stroke-width="1.0" stroke-linejoin="round" stroke-linecap="butt" d="m785.977 405.71994l0 0c0 -26.287048 20.168335 -47.596924 45.04724 -47.596924l0 0c11.947266 0 23.405212 5.0146484 31.85321 13.940826c8.447998 8.926147 13.194031 21.032593 13.194031 33.656097l0 0c0 26.287048 -20.168335 47.596924 -45.04724 47.596924l0 0c-24.878906 0 -45.04724 -21.309875 -45.04724 -47.596924z" fill-rule="evenodd"/><path fill="#000000" d="m802.8278 412.63992l0 -13.359375l5.015625 0q1.53125 0 2.453125 0.40625q0.921875 0.40625 1.4375 1.25q0.53125 0.84375 0.53125 1.765625q0 0.859375 -0.46875 1.625q-0.453125 0.75 -1.390625 1.203125q1.203125 0.359375 1.859375 1.21875q0.65625 0.859375 0.65625 2.015625q0 0.9375 -0.40625 1.75q-0.390625 0.796875 -0.984375 1.234375q-0.578125 0.4375 -1.453125 0.671875q-0.875 0.21875 -2.15625 0.21875l-5.09375 0zm1.78125 -7.75l2.875 0q1.1875 0 1.6875 -0.140625q0.671875 -0.203125 1.015625 -0.671875q0.34375 -0.46875 0.34375 -1.171875q0 -0.65625 -0.328125 -1.15625q-0.3125 -0.515625 -0.90625 -0.703125q-0.59375 -0.1875 -2.03125 -0.1875l-2.65625 0l0 4.03125zm0 6.171875l3.3125 0q0.859375 0 1.203125 -0.0625q0.609375 -0.109375 1.015625 -0.359375q0.421875 -0.265625 0.6875 -0.75q0.265625 -0.484375 0.265625 -1.125q0 -0.75 -0.390625 -1.296875q-0.375 -0.546875 -1.0625 -0.765625q-0.671875 -0.234375 -1.953125 -0.234375l-3.078125 0l0 4.59375zm9.9279785 -3.265625q0 -2.6875 1.484375 -3.96875q1.25 -1.078125 3.046875 -1.078125q2.0 0 3.265625 1.3125q1.265625 1.296875 1.265625 3.609375q0 1.859375 -0.5625 2.9375q-0.5625 1.0625 -1.640625 1.65625q-1.0625 0.59375 -2.328125 0.59375q-2.03125 0 -3.28125 -1.296875q-1.25 -1.3125 -1.25 -3.765625zm1.6875 0q0 1.859375 0.796875 2.796875q0.8125 0.921875 2.046875 0.921875q1.21875 0 2.03125 -0.921875q0.8125 -0.9375 0.8125 -2.84375q0 -1.796875 -0.8125 -2.71875q-0.8125 -0.921875 -2.03125 -0.921875q-1.234375 0 -2.046875 0.921875q-0.796875 0.90625 -0.796875 2.765625zm9.297546 4.84375l0 -9.671875l1.46875 0l0 1.359375q0.453125 -0.71875 1.203125 -1.140625q0.765625 -0.4375 1.71875 -0.4375q1.078125 0 1.765625 0.453125q0.6875 0.4375 0.96875 1.234375q1.15625 -1.6875 2.984375 -1.6875q1.453125 0 2.21875 0.796875q0.78125 0.796875 0.78125 2.453125l0 6.640625l-1.640625 0l0 -6.09375q0 -0.984375 -0.15625 -1.40625q-0.15625 -0.4375 -0.578125 -0.703125q-0.421875 -0.265625 -0.984375 -0.265625q-1.015625 0 -1.6875 0.6875q-0.671875 0.671875 -0.671875 2.15625l0 5.625l-1.640625 0l0 -6.28125q0 -1.09375 -0.40625 -1.640625q-0.40625 -0.546875 -1.3125 -0.546875q-0.6875 0 -1.28125 0.359375q-0.59375 0.359375 -0.859375 1.0625q-0.25 0.703125 -0.25 2.03125l0 5.015625l-1.640625 0zm17.040833 0l-1.515625 0l0 -13.359375l1.640625 0l0 4.765625q1.046875 -1.296875 2.65625 -1.296875q0.890625 0 1.6875 0.359375q0.796875 0.359375 1.3125 1.015625q0.515625 0.640625 0.796875 1.5625q0.296875 0.921875 0.296875 1.96875q0 2.484375 -1.234375 3.84375q-1.21875 1.359375 -2.953125 1.359375q-1.703125 0 -2.6875 -1.4375l0 1.21875zm-0.015625 -4.90625q0 1.734375 0.484375 2.515625q0.765625 1.265625 2.09375 1.265625q1.078125 0 1.859375 -0.9375q0.78125 -0.9375 0.78125 -2.78125q0 -1.890625 -0.75 -2.796875q-0.75 -0.90625 -1.828125 -0.90625q-1.0625 0 -1.859375 0.9375q-0.78125 0.9375 -0.78125 2.703125zm15.203857 3.71875q-0.921875 0.765625 -1.765625 1.09375q-0.828125 0.3125 -1.796875 0.3125q-1.59375 0 -2.453125 -0.78125q-0.859375 -0.78125 -0.859375 -1.984375q0 -0.71875 0.328125 -1.296875q0.328125 -0.59375 0.84375 -0.9375q0.53125 -0.359375 1.1875 -0.546875q0.46875 -0.125 1.453125 -0.25q1.984375 -0.234375 2.921875 -0.5625q0.015625 -0.34375 0.015625 -0.421875q0 -1.0 -0.46875 -1.421875q-0.625 -0.546875 -1.875 -0.546875q-1.15625 0 -1.703125 0.40625q-0.546875 0.40625 -0.8125 1.421875l-1.609375 -0.21875q0.21875 -1.015625 0.71875 -1.640625q0.5 -0.640625 1.453125 -0.984375q0.953125 -0.34375 2.1875 -0.34375q1.25 0 2.015625 0.296875q0.78125 0.28125 1.140625 0.734375q0.375 0.4375 0.515625 1.109375q0.078125 0.421875 0.078125 1.515625l0 2.1875q0 2.28125 0.109375 2.890625q0.109375 0.59375 0.40625 1.15625l-1.703125 0q-0.265625 -0.515625 -0.328125 -1.1875zm-0.140625 -3.671875q-0.890625 0.375 -2.671875 0.625q-1.015625 0.140625 -1.4375 0.328125q-0.421875 0.1875 -0.65625 0.53125q-0.21875 0.34375 -0.21875 0.78125q0 0.65625 0.5 1.09375q0.5 0.4375 1.453125 0.4375q0.9375 0 1.671875 -0.40625q0.75 -0.421875 1.09375 -1.140625q0.265625 -0.5625 0.265625 -1.640625l0 -0.609375z" fill-rule="nonzero"/><path fill="#cfe2f3" d="m775.51154 323.2053l11.574768 0l0 87.10712l-11.574768 0z" fill-rule="evenodd"/><path stroke="#000000" stroke-width="1.0" stroke-linejoin="round" stroke-linecap="butt" d="m775.51154 323.2053l11.574768 0l0 87.10712l-11.574768 0z" fill-rule="evenodd"/><path fill="#cfe2f3" d="m779.2813 443.0171l98.855896 0c0.99957275 0 1.9581909 0.3970642 2.665039 1.1038818c0.7067871 0.7067871 1.1038818 1.6654358 1.1038818 2.6650085l0 18.843994c0 4.8828125E-4 -4.272461E-4 8.8500977E-4 -9.1552734E-4 8.8500977E-4l-106.39282 -8.8500977E-4l0 0c-4.8828125E-4 0 -8.544922E-4 -3.9672852E-4 -8.544922E-4 -8.8500977E-4l8.544922E-4 -18.84311l0 0c0 -2.0815125 1.687439 -3.7688904 3.768921 -3.7688904z" fill-rule="evenodd"/><path stroke="#000000" stroke-width="1.0" stroke-linejoin="round" stroke-linecap="butt" d="m779.2813 443.0171l98.855896 0c0.99957275 0 1.9581909 0.3970642 2.665039 1.1038818c0.7067871 0.7067871 1.1038818 1.6654358 1.1038818 2.6650085l0 18.843994c0 4.8828125E-4 -4.272461E-4 8.8500977E-4 -9.1552734E-4 8.8500977E-4l-106.39282 -8.8500977E-4l0 0c-4.8828125E-4 0 -8.544922E-4 -3.9672852E-4 -8.544922E-4 -8.8500977E-4l8.544922E-4 -18.84311l0 0c0 -2.0815125 1.687439 -3.7688904 3.768921 -3.7688904z" fill-rule="evenodd"/><path fill="#666666" d="m788.60895 184.86351l28.094482 0l0 9.070877l-28.094482 0z" fill-rule="evenodd"/><path stroke="#000000" stroke-width="1.0" stroke-linejoin="round" stroke-linecap="butt" d="m788.60895 184.86351l28.094482 0l0 9.070877l-28.094482 0z" fill-rule="evenodd"/><path fill="#666666" d="m788.60895 225.15224l28.094482 0l0 9.070862l-28.094482 0z" fill-rule="evenodd"/><path stroke="#000000" stroke-width="1.0" stroke-linejoin="round" stroke-linecap="butt" d="m788.60895 225.15224l28.094482 0l0 9.070862l-28.094482 0z" fill-rule="evenodd"/><path fill="#666666" d="m788.60895 205.00787l28.094482 0l0 9.070862l-28.094482 0z" fill-rule="evenodd"/><path stroke="#000000" stroke-width="1.0" stroke-linejoin="round" stroke-linecap="butt" d="m788.60895 205.00787l28.094482 0l0 9.070862l-28.094482 0z" fill-rule="evenodd"/><path fill="#000000" fill-opacity="0.0" d="m755.62994 180.93039l28.094482 0l0 14.267715l-28.094482 0z" fill-rule="evenodd"/><path fill="#000000" d="m768.6502 192.58424l0 -8.59375l1.15625 0l4.515625 6.75l0 -6.75l1.09375 0l0 8.59375l-1.171875 0l-4.515625 -6.75l0 6.75l-1.078125 0zm8.728516 0l0 -8.59375l5.796875 0l0 1.015625l-4.65625 0l0 2.65625l4.03125 0l0 1.015625l-4.03125 0l0 3.90625l-1.140625 0z" fill-rule="nonzero"/><path fill="#000000" fill-opacity="0.0" d="m755.62994 222.55505l28.094482 0l0 14.267715l-28.094482 0z" fill-rule="evenodd"/><path fill="#000000" d="m767.9764 234.20892l0 -8.59375l1.15625 0l4.515625 6.75l0 -6.75l1.09375 0l0 8.59375l-1.171875 0l-4.515625 -6.75l0 6.75l-1.078125 0zm7.7285156 0l3.296875 -8.59375l1.21875 0l3.515625 8.59375l-1.28125 0l-1.015625 -2.609375l-3.578125 0l-0.953125 2.609375l-1.203125 0zm2.484375 -3.53125l2.90625 0l-0.890625 -2.375q-0.421875 -1.078125 -0.609375 -1.78125q-0.171875 0.828125 -0.46875 1.640625l-0.9375 2.515625z" fill-rule="nonzero"/><path fill="#000000" fill-opacity="0.0" d="m755.62994 201.74272l28.094482 0l0 14.267715l-28.094482 0z" fill-rule="evenodd"/><path fill="#000000" d="m782.1209 210.38095l1.125 0.296875q-0.359375 1.390625 -1.28125 2.125q-0.921875 0.734375 -2.265625 0.734375q-1.390625 0 -2.265625 -0.5625q-0.875 -0.5625 -1.328125 -1.625q-0.453125 -1.078125 -0.453125 -2.3125q0 -1.34375 0.515625 -2.34375q0.515625 -1.0 1.453125 -1.515625q0.953125 -0.515625 2.09375 -0.515625q1.28125 0 2.15625 0.65625q0.890625 0.65625 1.234375 1.84375l-1.125 0.265625q-0.296875 -0.9375 -0.875 -1.359375q-0.5625 -0.4375 -1.421875 -0.4375q-0.984375 0 -1.65625 0.484375q-0.65625 0.46875 -0.9375 1.265625q-0.265625 0.796875 -0.265625 1.65625q0 1.09375 0.3125 1.90625q0.328125 0.8125 1.0 1.21875q0.671875 0.40625 1.46875 0.40625q0.953125 0 1.609375 -0.546875q0.671875 -0.546875 0.90625 -1.640625z" fill-rule="nonzero"/><path fill="#666666" d="m670.9094 186.73819l28.094543 0l0 5.32283l-28.094543 0z" fill-rule="evenodd"/><path stroke="#000000" stroke-width="1.0" stroke-linejoin="round" stroke-linecap="butt" d="m670.9094 186.73819l28.094543 0l0 5.32283l-28.094543 0z" fill-rule="evenodd"/><path fill="#666666" d="m670.9094 208.64369l28.094543 0l0 5.3228455l-28.094543 0z" fill-rule="evenodd"/><path stroke="#000000" stroke-width="1.0" stroke-linejoin="round" stroke-linecap="butt" d="m670.9094 208.64369l28.094543 0l0 5.3228455l-28.094543 0z" fill-rule="evenodd"/><path fill="#666666" d="m670.9094 230.54921l28.094543 0l0 5.32283l-28.094543 0z" fill-rule="evenodd"/><path stroke="#000000" stroke-width="1.0" stroke-linejoin="round" stroke-linecap="butt" d="m670.9094 230.54921l28.094543 0l0 5.32283l-28.094543 0z" fill-rule="evenodd"/><path fill="#000000" fill-opacity="0.0" d="m702.4383 180.93039l28.094543 0l0 14.267715l-28.094543 0z" fill-rule="evenodd"/><path fill="#000000" d="m705.4383 191.19362l0 -2.359375l-2.328125 0l0 -0.984375l2.328125 0l0 -2.328125l1.0 0l0 2.328125l2.34375 0l0 0.984375l-2.34375 0l0 2.359375l-1.0 0z" fill-rule="nonzero"/><path fill="#000000" fill-opacity="0.0" d="m702.4383 202.43695l28.094543 0l0 14.267715l-28.094543 0z" fill-rule="evenodd"/><path fill="#000000" d="m702.98517 211.32518l1.0625 -0.09375q0.078125 0.65625 0.359375 1.0625q0.28125 0.40625 0.859375 0.671875q0.59375 0.25 1.328125 0.25q0.640625 0 1.140625 -0.1875q0.5 -0.203125 0.734375 -0.53125q0.25 -0.34375 0.25 -0.734375q0 -0.40625 -0.234375 -0.703125q-0.234375 -0.3125 -0.765625 -0.515625q-0.359375 -0.140625 -1.546875 -0.421875q-1.171875 -0.28125 -1.640625 -0.53125q-0.625 -0.328125 -0.921875 -0.796875q-0.296875 -0.484375 -0.296875 -1.078125q0 -0.640625 0.359375 -1.203125q0.375 -0.578125 1.078125 -0.859375q0.71875 -0.296875 1.578125 -0.296875q0.953125 0 1.6875 0.3125q0.734375 0.296875 1.125 0.90625q0.390625 0.59375 0.421875 1.34375l-1.09375 0.078125q-0.09375 -0.8125 -0.609375 -1.21875q-0.5 -0.421875 -1.484375 -0.421875q-1.03125 0 -1.5 0.375q-0.46875 0.375 -0.46875 0.90625q0 0.46875 0.328125 0.765625q0.328125 0.296875 1.703125 0.609375q1.390625 0.3125 1.90625 0.546875q0.75 0.359375 1.109375 0.890625q0.359375 0.515625 0.359375 1.21875q0 0.6875 -0.390625 1.296875q-0.390625 0.59375 -1.125 0.9375q-0.734375 0.328125 -1.65625 0.328125q-1.171875 0 -1.96875 -0.328125q-0.78125 -0.34375 -1.234375 -1.03125q-0.4375 -0.6875 -0.453125 -1.546875zm8.253906 -4.609375l0 -1.21875l1.0625 0l0 1.21875l-1.0625 0zm0 7.375l0 -6.21875l1.0625 0l0 6.21875l-1.0625 0zm2.4628906 0.515625l1.03125 0.15625q0.0625 0.46875 0.359375 0.6875q0.390625 0.296875 1.0625 0.296875q0.734375 0 1.125 -0.296875q0.40625 -0.296875 0.546875 -0.8125q0.09375 -0.328125 0.078125 -1.359375q-0.6875 0.8125 -1.71875 0.8125q-1.28125 0 -1.984375 -0.921875q-0.703125 -0.9375 -0.703125 -2.21875q0 -0.890625 0.3125 -1.640625q0.328125 -0.765625 0.9375 -1.171875q0.609375 -0.40625 1.4375 -0.40625q1.109375 0 1.828125 0.890625l0 -0.75l0.96875 0l0 5.375q0 1.453125 -0.296875 2.0625q-0.296875 0.609375 -0.9375 0.953125q-0.640625 0.359375 -1.578125 0.359375q-1.109375 0 -1.796875 -0.5q-0.6875 -0.5 -0.671875 -1.515625zm0.875 -3.734375q0 1.21875 0.484375 1.78125q0.484375 0.5625 1.21875 0.5625q0.734375 0 1.21875 -0.5625q0.5 -0.5625 0.5 -1.75q0 -1.140625 -0.515625 -1.71875q-0.5 -0.578125 -1.21875 -0.578125q-0.703125 0 -1.203125 0.578125q-0.484375 0.5625 -0.484375 1.6875zm6.298828 3.21875l0 -1.203125l1.203125 0l0 1.203125l-1.203125 0z" fill-rule="nonzero"/><path fill="#000000" fill-opacity="0.0" d="m702.4383 223.94351l28.094543 0l0 14.267715l-28.094543 0z" fill-rule="evenodd"/><path fill="#000000" d="m702.8133 233.01924l0 -1.0625l3.25 0l0 1.0625l-3.25 0z" fill-rule="nonzero"/><path fill="#000000" fill-opacity="0.0" d="m578.54987 211.40318l46.179688 0l0 -0.09448242l46.166748 0" fill-rule="evenodd"/><path stroke="#6aa84f" stroke-width="1.0" stroke-linejoin="round" stroke-linecap="butt" d="m578.54987 211.40318l46.179688 0l0 -0.09448242l46.166748 0" fill-rule="evenodd"/><path fill="#000000" fill-opacity="0.0" d="m670.9094 233.21063l-9.518127 0l0 165.29132l-82.82831 0" fill-rule="evenodd"/><path stroke="#000000" stroke-width="1.0" stroke-linejoin="round" stroke-linecap="butt" d="m670.9094 233.21063l-9.518127 0l0 165.29132l-82.82831 0" fill-rule="evenodd"/><path fill="#000000" fill-opacity="0.0" d="m670.9094 189.3996l-17.137268 0l0 -19.2126l-17.130432 0" fill-rule="evenodd"/><path stroke="#ff0000" stroke-width="1.0" stroke-linejoin="round" stroke-linecap="butt" d="m670.9094 189.3996l-17.137268 0l0 -19.2126l-17.130432 0" fill-rule="evenodd"/><path fill="#000000" fill-opacity="0.0" d="m608.64044 163.05249l17.984253 0l0 14.267715l-17.984253 0z" fill-rule="evenodd"/><path fill="#ff0000" d="m617.12866 173.31572l0 -2.359375l-2.328125 0l0 -0.984375l2.328125 0l0 -2.328125l1.0 0l0 2.328125l2.34375 0l0 0.984375l-2.34375 0l0 2.359375l-1.0 0z" fill-rule="nonzero"/><path fill="#000000" fill-opacity="0.0" d="m816.7034 209.5433l46.551147 0l0 -62.48819" fill-rule="evenodd"/><path stroke="#4a86e8" stroke-width="1.0" stroke-linejoin="round" stroke-linecap="butt" d="m816.7034 209.5433l46.551147 0l0 -62.48819" fill-rule="evenodd"/><path fill="#000000" fill-opacity="0.0" d="m816.7034 229.68767l46.173218 0l0 142.3622" fill-rule="evenodd"/><path stroke="#4a86e8" stroke-width="1.0" stroke-linejoin="round" stroke-linecap="butt" d="m816.7034 229.68767l46.173218 0l0 142.3622" fill-rule="evenodd"/><path fill="#000000" fill-opacity="0.0" d="m876.0715 405.71994l16.850403 0l0 -258.6772" fill-rule="evenodd"/><path stroke="#4a86e8" stroke-width="1.0" stroke-linejoin="round" stroke-linecap="butt" d="m876.0715 405.71994l16.850403 0l0 -258.6772" fill-rule="evenodd"/><path fill="#ff0000" d="m625.0761 170.18636l0 0c0 -3.1919556 2.5875854 -5.7795258 5.779541 -5.7795258l0 0c1.5328369 0 3.0028687 0.608902 4.086731 1.6927795c1.0838623 1.0838776 1.69281 2.5539093 1.69281 4.086746l0 0c0 3.1919403 -2.5875854 5.7795258 -5.779541 5.7795258l0 0c-3.1919556 0 -5.779541 -2.5875854 -5.779541 -5.7795258z" fill-rule="evenodd"/><path fill="#4a86e8" d="m857.48047 141.27034l0 0c0 -3.1919403 2.5875854 -5.7795258 5.779541 -5.7795258l0 0c1.5328369 0 3.0028687 0.60891724 4.086731 1.6927795c1.0839233 1.0838776 1.69281 2.5539246 1.69281 4.086746l0 0c0 3.1919403 -2.5875854 5.7795258 -5.779541 5.7795258l0 0c-3.1919556 0 -5.779541 -2.5875854 -5.779541 -5.7795258z" fill-rule="evenodd"/><path fill="#4a86e8" d="m887.1575 141.27034l0 0c0 -3.1919403 2.5875854 -5.7795258 5.779541 -5.7795258l0 0c1.5328369 0 3.0028687 0.60891724 4.086731 1.6927795c1.0838623 1.0838776 1.69281 2.5539246 1.69281 4.086746l0 0c0 3.1919403 -2.5875854 5.7795258 -5.779541 5.7795258l0 0c-3.1919556 0 -5.779541 -2.5875854 -5.779541 -5.7795258z" fill-rule="evenodd"/><path fill="#000000" fill-opacity="0.0" d="m854.1351 115.05249l17.984253 0l0 14.267715l-17.984253 0z" fill-rule="evenodd"/><path fill="#4a86e8" d="m860.1389 123.44073l0 -1.203125q0.609375 -0.703125 1.625 -0.703125q0.34375 0 0.734375 0.109375q0.390625 0.09375 1.109375 0.40625q0.40625 0.171875 0.59375 0.21875q0.203125 0.046875 0.421875 0.046875q0.375 0 0.78125 -0.21875q0.40625 -0.234375 0.71875 -0.578125l0 1.25q-0.375 0.34375 -0.765625 0.5q-0.375 0.15625 -0.859375 0.15625q-0.34375 0 -0.671875 -0.078125q-0.3125 -0.078125 -1.015625 -0.390625q-0.6875 -0.3125 -1.140625 -0.3125q-0.375 0 -0.71875 0.171875q-0.328125 0.15625 -0.8125 0.625z" fill-rule="nonzero"/><path fill="#000000" fill-opacity="0.0" d="m883.6297 115.05249l17.984253 0l0 14.267715l-17.984253 0z" fill-rule="evenodd"/><path fill="#4a86e8" d="m889.63354 123.44073l0 -1.203125q0.609375 -0.703125 1.625 -0.703125q0.34375 0 0.734375 0.109375q0.390625 0.09375 1.109375 0.40625q0.40625 0.171875 0.59375 0.21875q0.203125 0.046875 0.421875 0.046875q0.375 0 0.78125 -0.21875q0.40625 -0.234375 0.71875 -0.578125l0 1.25q-0.375 0.34375 -0.765625 0.5q-0.375 0.15625 -0.859375 0.15625q-0.34375 0 -0.671875 -0.078125q-0.3125 -0.078125 -1.015625 -0.390625q-0.6875 -0.3125 -1.140625 -0.3125q-0.375 0 -0.71875 0.171875q-0.328125 0.15625 -0.8125 0.625z" fill-rule="nonzero"/><path fill="#000000" fill-opacity="0.0" d="m622.7454 310.937l0 -94.99213l25.88977 0l0 94.99213z" fill-rule="evenodd"/><path fill="#000000" d="m640.4903 275.43588l-9.546875 0l0 -1.265625l8.421875 0l0 -4.703125l1.125 0l0 5.96875zm0 -7.4906006l-9.546875 0l0 -6.90625l1.125 0l0 5.640625l2.921875 0l0 -5.28125l1.125 0l0 5.28125l3.25 0l0 -5.859375l1.125 0l0 7.125zm0 -8.874115l-9.546875 0l0 -3.2812653q0 -1.109375 0.140625 -1.703125q0.1875 -0.8125 0.6875 -1.390625q0.640625 -0.765625 1.640625 -1.140625q0.984375 -0.375 2.25 -0.375q1.09375 0 1.9375 0.265625q0.828125 0.25 1.390625 0.65625q0.546875 0.390625 0.859375 0.859375q0.3125 0.46875 0.484375 1.140625q0.15625 0.65625 0.15625 1.53125l0 3.4375153zm-1.125 -1.265625l0 -2.0312653q0 -0.9375 -0.171875 -1.46875q-0.1875 -0.546875 -0.5 -0.875q-0.453125 -0.4375 -1.203125 -0.6875q-0.765625 -0.25 -1.84375 -0.25q-1.5 0 -2.296875 0.5q-0.8125 0.484375 -1.078125 1.1875q-0.203125 0.5 -0.203125 1.625l0 2.0000153l7.296875 0z" fill-rule="nonzero"/><path fill="#000000" fill-opacity="0.0" d="m696.31104 244.68767l94.99213 0l0 25.889755l-94.99213 0z" fill-rule="evenodd"/><path fill="#000000" d="m731.1484 262.43256l0 -9.54689l4.234375 0q1.265625 0 1.921875 0.265625q0.671875 0.25 1.0625 0.90625q0.40625 0.65625 0.40625 1.4375q0 1.0156403 -0.65625 1.7187653q-0.65625 0.6875 -2.03125 0.875q0.5 0.25 0.765625 0.484375q0.546875 0.5 1.046875 1.265625l1.65625 2.59375l-1.578125 0l-1.265625 -1.984375q-0.5625 -0.859375 -0.921875 -1.3125q-0.34375 -0.453125 -0.640625 -0.640625q-0.28125 -0.1875 -0.5625 -0.25q-0.21875 -0.046875 -0.703125 -0.046875l-1.46875 0l0 4.234375l-1.265625 0zm1.265625 -5.328125l2.71875 0q0.859375 0 1.34375 -0.171875q0.484375 -0.1875 0.734375 -0.578125q0.265625 -0.39064026 0.265625 -0.85939026q0 -0.671875 -0.5 -1.109375q-0.484375 -0.4375 -1.546875 -0.4375l-3.015625 0l0 3.1562653zm12.921997 3.109375l1.203125 0.140625q-0.28125 1.0625 -1.0625 1.65625q-0.765625 0.578125 -1.96875 0.578125q-1.515625 0 -2.40625 -0.9375q-0.890625 -0.9375 -0.890625 -2.609375q0 -1.75 0.890625 -2.703125q0.90625 -0.96876526 2.34375 -0.96876526q1.390625 0 2.265625 0.93751526q0.875 0.9375 0.875 2.65625q0 0.109375 0 0.3125l-5.15625 0q0.0625 1.140625 0.640625 1.75q0.578125 0.59375 1.4375 0.59375q0.65625 0 1.109375 -0.328125q0.453125 -0.34375 0.71875 -1.078125zm-3.84375 -1.90625l3.859375 0q-0.078125 -0.859375 -0.4375 -1.296875q-0.5625 -0.6875 -1.453125 -0.6875q-0.8125 0 -1.359375 0.546875q-0.546875 0.53125 -0.609375 1.4375zm6.5062256 4.125l0 -9.54689l1.171875 0l0 9.54689l-1.171875 0zm7.7111206 -2.21875l1.203125 0.140625q-0.28125 1.0625 -1.0625 1.65625q-0.765625 0.578125 -1.96875 0.578125q-1.515625 0 -2.40625 -0.9375q-0.890625 -0.9375 -0.890625 -2.609375q0 -1.75 0.890625 -2.703125q0.90625 -0.96876526 2.34375 -0.96876526q1.390625 0 2.265625 0.93751526q0.875 0.9375 0.875 2.65625q0 0.109375 0 0.3125l-5.15625 0q0.0625 1.140625 0.640625 1.75q0.578125 0.59375 1.4375 0.59375q0.65625 0 1.109375 -0.328125q0.453125 -0.34375 0.71875 -1.078125zm-3.84375 -1.90625l3.859375 0q-0.078125 -0.859375 -0.4375 -1.296875q-0.5625 -0.6875 -1.453125 -0.6875q-0.8125 0 -1.359375 0.546875q-0.546875 0.53125 -0.609375 1.4375zm1.46875 -4.7500153l-0.734375 1.109375l-1.34375 0l1.40625 -1.828125l1.25 0l1.46875 1.828125l-1.328125 0l-0.71875 -1.109375z" fill-rule="nonzero"/><path fill="#000000" fill-opacity="0.0" d="m27.82677 11.671916l747.68506 0l0 48.755905l-747.68506 0z" fill-rule="evenodd"/><path fill="#000000" d="m46.63927 34.360664l3.03125 0.765625q-0.953125 3.734375 -3.4375 5.703125q-2.46875 1.953125 -6.046875 1.953125q-3.703125 0 -6.03125 -1.5q-2.3125 -1.515625 -3.53125 -4.375q-1.203125 -2.859375 -1.203125 -6.140623q0 -3.578125 1.359375 -6.234375q1.375 -2.671875 3.890625 -4.046875q2.53125 -1.390625 5.5625 -1.390625q3.4375 0 5.78125 1.75q2.34375 1.75 3.265625 4.921875l-2.984375 0.703125q-0.796875 -2.5 -2.3125 -3.640625q-1.515625 -1.140625 -3.8125 -1.140625q-2.640625 0 -4.421875 1.265625q-1.765625 1.265625 -2.484375 3.40625q-0.71875 2.125 -0.71875 4.390625q0 2.921873 0.84375 5.109373q0.859375 2.171875 2.65625 3.25q1.796875 1.078125 3.890625 1.078125q2.546875 0 4.3125 -1.46875q1.765625 -1.46875 2.390625 -4.359375zm5.359375 -0.265625q0 -4.609373 2.5625 -6.828123q2.140625 -1.84375 5.21875 -1.84375q3.421875 0 5.593754 2.25q2.171875 2.234375 2.171875 6.187498q0 3.203125 -0.96875 5.046875q-0.953125 1.828125 -2.7968788 2.84375q-1.828125 1.015625 -4.0 1.015625q-3.484375 0 -5.640625 -2.234375q-2.140625 -2.234375 -2.140625 -6.4375zm2.890625 0q0 3.1875 1.390625 4.78125q1.390625 1.578125 3.5 1.578125q2.09375 0 3.484375 -1.59375q1.3906288 -1.59375 1.3906288 -4.859375q0 -3.078123 -1.4062538 -4.656248q-1.390625 -1.59375 -3.46875 -1.59375q-2.109375 0 -3.5 1.578125q-1.390625 1.578125 -1.390625 4.765623zm15.953129 8.296875l0 -16.593748l2.53125 0l0 2.359375q1.828125 -2.734375 5.28125 -2.734375q1.5 0 2.75 0.546875q1.265625 0.53125 1.890625 1.40625q0.625 0.875 0.875 2.078125q0.15625 0.78125 0.15625 2.734373l0 10.203125l-2.8125 0l0 -10.09375q0 -1.7187481 -0.328125 -2.562498q-0.328125 -0.859375 -1.171875 -1.359375q-0.828125 -0.515625 -1.953125 -0.515625q-1.796875 0 -3.109375 1.140625q-1.296875 1.140625 -1.296875 4.328123l0 9.0625l-2.8125 0zm23.9375 -2.515625l0.40625 2.484375q-1.1875 0.25 -2.125 0.25q-1.53125 0 -2.375 -0.484375q-0.84375 -0.484375 -1.1875 -1.265625q-0.34375 -0.796875 -0.34375 -3.328125l0 -9.546873l-2.0625 0l0 -2.1875l2.0625 0l0 -4.109375l2.796875 -1.6875l0 5.796875l2.828125 0l0 2.1875l-2.828125 0l0 9.703123q0 1.203125 0.140625 1.546875q0.15625 0.34375 0.484375 0.546875q0.34375 0.203125 0.96875 0.203125q0.46875 0 1.234375 -0.109375zm2.71875 2.515625l0 -16.593748l2.53125 0l0 2.515625q0.96875 -1.765625 1.78125 -2.328125q0.828125 -0.5625 1.8125 -0.5625q1.421875 0 2.890625 0.90625l-0.96875 2.609375q-1.03125 -0.609375 -2.0625 -0.609375q-0.921875 0 -1.65625 0.5625q-0.734375 0.546875 -1.046875 1.53125q-0.46875 1.5 -0.46875 3.281248l0 8.6875l-2.8125 0zm9.640625 -8.296875q0 -4.609373 2.5625 -6.828123q2.140625 -1.84375 5.21875 -1.84375q3.421875 0 5.59375 2.25q2.171875 2.234375 2.171875 6.187498q0 3.203125 -0.96875 5.046875q-0.953125 1.828125 -2.796875 2.84375q-1.828125 1.015625 -4.0 1.015625q-3.484375 0 -5.640625 -2.234375q-2.140625 -2.234375 -2.140625 -6.4375zm2.890625 0q0 3.1875 1.390625 4.78125q1.390625 1.578125 3.5 1.578125q2.09375 0 3.484375 -1.59375q1.390625 -1.59375 1.390625 -4.859375q0 -3.078123 -1.40625 -4.656248q-1.390625 -1.59375 -3.46875 -1.59375q-2.109375 0 -3.5 1.578125q-1.390625 1.578125 -1.390625 4.765623zm15.890625 8.296875l0 -22.906248l2.8124924 0l0 22.906248l-2.8124924 0zm18.531242 -5.34375l2.90625 0.359375q-0.6875 2.546875 -2.546875 3.953125q-1.859375 1.40625 -4.75 1.40625q-3.640625 0 -5.78125 -2.234375q-2.125 -2.25 -2.125 -6.296875q0 -4.187498 2.15625 -6.499998q2.15625 -2.3125 5.59375 -2.3125q3.328125 0 5.4375 2.265625q2.109375 2.265625 2.109375 6.374998q0 0.25 -0.015625 0.75l-12.375 0q0.15625 2.734375 1.546875 4.1875q1.390625 1.453125 3.46875 1.453125q1.546875 0 2.640625 -0.8125q1.09375 -0.8125 1.734375 -2.59375zm-9.234375 -4.546875l9.265625 0q-0.1875 -2.093748 -1.0625 -3.140623q-1.34375 -1.625 -3.484375 -1.625q-1.9375 0 -3.265625 1.296875q-1.3125 1.296875 -1.453125 3.468748zm35.328125 9.890625l0 -2.09375q-1.578125 2.46875 -4.640625 2.46875q-1.984375 0 -3.65625 -1.09375q-1.65625 -1.09375 -2.578125 -3.046875q-0.90625 -1.96875 -0.90625 -4.515625q0 -2.484373 0.828125 -4.499998q0.828125 -2.03125 2.484375 -3.109375q1.65625 -1.078125 3.703125 -1.078125q1.5 0 2.671875 0.640625q1.171875 0.625 1.90625 1.640625l0 -8.21875l2.796875 0l0 22.906248l-2.609375 0zm-8.890625 -8.28125q0 3.1875 1.34375 4.765625q1.34375 1.578125 3.171875 1.578125q1.84375 0 3.125 -1.5q1.296875 -1.515625 1.296875 -4.609375q0 -3.406248 -1.3125 -4.999998q-1.3125 -1.59375 -3.234375 -1.59375q-1.875 0 -3.140625 1.53125q-1.25 1.53125 -1.25 4.828123zm27.28125 2.9375l2.90625 0.359375q-0.6875 2.546875 -2.546875 3.953125q-1.859375 1.40625 -4.75 1.40625q-3.640625 0 -5.78125 -2.234375q-2.125 -2.25 -2.125 -6.296875q0 -4.187498 2.15625 -6.499998q2.15625 -2.3125 5.59375 -2.3125q3.328125 0 5.4375 2.265625q2.109375 2.265625 2.109375 6.374998q0 0.25 -0.015625 0.75l-12.375 0q0.15625 2.734375 1.546875 4.1875q1.390625 1.453125 3.46875 1.453125q1.546875 0 2.640625 -0.8125q1.09375 -0.8125 1.734375 -2.59375zm-9.234375 -4.546875l9.265625 0q-0.1875 -2.093748 -1.0625 -3.140623q-1.34375 -1.625 -3.484375 -1.625q-1.9375 0 -3.265625 1.296875q-1.3125 1.296875 -1.453125 3.468748zm24.796875 9.890625l0 -22.906248l8.59375 0q2.625 0 4.203125 0.703125q1.59375 0.6875 2.484375 2.140625q0.90625 1.4375 0.90625 3.015625q0 1.46875 -0.796875 2.765625q-0.796875 1.296875 -2.40625 2.09375q2.078125 0.609375 3.1875 2.078123q1.125 1.46875 1.125 3.46875q0 1.609375 -0.6875 3.0q-0.671875 1.375 -1.671875 2.125q-1.0 0.75 -2.515625 1.140625q-1.5 0.375 -3.6875 0.375l-8.734375 0zm3.03125 -13.281248l4.953125 0q2.015625 0 2.890625 -0.265625q1.15625 -0.34375 1.734375 -1.140625q0.59375 -0.796875 0.59375 -2.0q0 -1.140625 -0.546875 -2.0q-0.546875 -0.875 -1.5625 -1.1875q-1.015625 -0.328125 -3.484375 -0.328125l-4.578125 0l0 6.921875zm0 10.578123l5.703125 0q1.46875 0 2.0625 -0.109375q1.046875 -0.1875 1.75 -0.625q0.703125 -0.4375 1.15625 -1.265625q0.453125 -0.84375 0.453125 -1.9375q0 -1.28125 -0.65625 -2.21875q-0.65625 -0.953125 -1.828125 -1.328125q-1.15625 -0.3906231 -3.34375 -0.3906231l-5.296875 0l0 7.874998zm17.03125 -5.59375q0 -4.609373 2.5625 -6.828123q2.140625 -1.84375 5.21875 -1.84375q3.421875 0 5.59375 2.25q2.171875 2.234375 2.171875 6.187498q0 3.203125 -0.96875 5.046875q-0.953125 1.828125 -2.796875 2.84375q-1.828125 1.015625 -4.0 1.015625q-3.484375 0 -5.640625 -2.234375q-2.140625 -2.234375 -2.140625 -6.4375zm2.890625 0q0 3.1875 1.390625 4.78125q1.390625 1.578125 3.5 1.578125q2.09375 0 3.484375 -1.59375q1.390625 -1.59375 1.390625 -4.859375q0 -3.078123 -1.40625 -4.656248q-1.390625 -1.59375 -3.46875 -1.59375q-2.109375 0 -3.5 1.578125q-1.390625 1.578125 -1.390625 4.765623zm15.953125 8.296875l0 -16.593748l2.515625 0l0 2.328125q0.78125 -1.21875 2.078125 -1.953125q1.296875 -0.75 2.953125 -0.75q1.84375 0 3.015625 0.765625q1.1875 0.765625 1.671875 2.140625q1.9687653 -2.90625 5.1250153 -2.90625q2.46875 0 3.796875 1.375q1.328125 1.359375 1.328125 4.203125l0 11.390623l-2.796875 0l0 -10.453123q0 -1.6875 -0.28125 -2.421875q-0.265625 -0.75 -0.984375 -1.203125q-0.71875 -0.453125 -1.6875 -0.453125q-1.75 0 -2.90625 1.171875q-1.15625 1.15625 -1.15625 3.718748l0 9.640625l-2.8125153 0l0 -10.781248q0 -1.875 -0.6875 -2.8125q-0.6875 -0.9375 -2.25 -0.9375q-1.1875 0 -2.203125 0.625q-1.0 0.625 -1.453125 1.828125q-0.453125 1.203125 -0.453125 3.468748l0 8.609375l-2.8125 0zm29.250015 0l-2.609375 0l0 -22.906248l2.8125 0l0 8.171875q1.78125 -2.234375 4.546875 -2.234375q1.53125 0 2.890625 0.625q1.375 0.609375 2.25 1.734375q0.890625 1.109375 1.390625 2.6875q0.5 1.5781231 0.5 3.374998q0 4.265625 -2.109375 6.59375q-2.109375 2.328125 -5.0625 2.328125q-2.9375 0 -4.609375 -2.453125l0 2.078125zm-0.03125 -8.421875q0 2.984375 0.8125 4.3125q1.328125 2.171875 3.59375 2.171875q1.84375 0 3.1875 -1.59375q1.34375 -1.609375 1.34375 -4.78125q0 -3.249998 -1.296875 -4.796873q-1.28125 -1.546875 -3.109375 -1.546875q-1.84375 0 -3.1875 1.609375q-1.34375 1.59375 -1.34375 4.624998zm26.0625 6.375q-1.5625 1.328125 -3.015625 1.875q-1.4375 0.546875 -3.09375 0.546875q-2.734375 0 -4.203125 -1.328125q-1.46875 -1.34375 -1.46875 -3.421875q0 -1.21875 0.546875 -2.21875q0.5625 -1.015625 1.453125 -1.625q0.90625 -0.609375 2.03125 -0.921875q0.828125 -0.21875 2.5 -0.421875q3.40625 -0.40625 5.015625 -0.9687481q0.015625 -0.578125 0.015625 -0.734375q0 -1.71875 -0.796875 -2.421875q-1.078125 -0.953125 -3.203125 -0.953125q-1.984375 0 -2.9375 0.703125q-0.9375 0.6875 -1.390625 2.453125l-2.75 -0.375q0.375 -1.765625 1.234375 -2.84375q0.859375 -1.09375 2.484375 -1.671875q1.625 -0.59375 3.765625 -0.59375q2.125 0 3.453125 0.5q1.328125 0.5 1.953125 1.265625q0.625 0.75 0.875 1.90625q0.140625 0.71875 0.140625 2.59375l0 3.749998q0 3.921875 0.171875 4.96875q0.1875 1.03125 0.71875 1.984375l-2.9375 0q-0.4375 -0.875 -0.5625 -2.046875zm-0.234375 -6.28125q-1.53125 0.625 -4.59375 1.0625q-1.734375 0.25 -2.453125 0.5625q-0.71875 0.3125 -1.109375 0.921875q-0.390625 0.59375 -0.390625 1.328125q0 1.125 0.84375 1.875q0.859375 0.75 2.5 0.75q1.625 0 2.890625 -0.703125q1.265625 -0.71875 1.859375 -1.953125q0.453125 -0.953125 0.453125 -2.8125l0 -1.03125zm16.09375 14.687504l0 -22.953127l2.5625 0l0 2.15625q0.90625 -1.265625 2.046875 -1.890625q1.140625 -0.640625 2.765625 -0.640625q2.125 0 3.75 1.09375q1.625 1.09375 2.453125 3.09375q0.828125 1.984375 0.828125 4.359373q0 2.546875 -0.921875 4.59375q-0.90625 2.03125 -2.65625 3.125q-1.734375 1.078125 -3.65625 1.078125q-1.40625 0 -2.53125 -0.59375q-1.109375 -0.59375 -1.828125 -1.5l0 8.078129l-2.8125 0zm2.546875 -14.562504q0 3.203125 1.296875 4.734375q1.296875 1.53125 3.140625 1.53125q1.875 0 3.203125 -1.578125q1.34375 -1.59375 1.34375 -4.921875q0 -3.171873 -1.3125 -4.749998q-1.296875 -1.578125 -3.109375 -1.578125q-1.796875 0 -3.1875 1.6875q-1.375 1.671875 -1.375 4.874998zm26.078125 6.15625q-1.5625 1.328125 -3.015625 1.875q-1.4375 0.546875 -3.09375 0.546875q-2.734375 0 -4.203125 -1.328125q-1.46875 -1.34375 -1.46875 -3.421875q0 -1.21875 0.546875 -2.21875q0.5625 -1.015625 1.453125 -1.625q0.90625 -0.609375 2.03125 -0.921875q0.828125 -0.21875 2.5 -0.421875q3.40625 -0.40625 5.015625 -0.9687481q0.015625 -0.578125 0.015625 -0.734375q0 -1.71875 -0.796875 -2.421875q-1.078125 -0.953125 -3.203125 -0.953125q-1.984375 0 -2.9375 0.703125q-0.9375 0.6875 -1.390625 2.453125l-2.75 -0.375q0.375 -1.765625 1.234375 -2.84375q0.859375 -1.09375 2.484375 -1.671875q1.625 -0.59375 3.765625 -0.59375q2.125 0 3.453125 0.5q1.328125 0.5 1.953125 1.265625q0.625 0.75 0.875 1.90625q0.140625 0.71875 0.140625 2.59375l0 3.749998q0 3.921875 0.171875 4.96875q0.1875 1.03125 0.71875 1.984375l-2.9375 0q-0.4375 -0.875 -0.5625 -2.046875zm-0.234375 -6.28125q-1.53125 0.625 -4.59375 1.0625q-1.734375 0.25 -2.453125 0.5625q-0.71875 0.3125 -1.109375 0.921875q-0.390625 0.59375 -0.390625 1.328125q0 1.125 0.84375 1.875q0.859375 0.75 2.5 0.75q1.625 0 2.890625 -0.703125q1.265625 -0.71875 1.859375 -1.953125q0.453125 -0.953125 0.453125 -2.8125l0 -1.03125zm7.171875 8.328125l0 -16.593748l2.53125 0l0 2.515625q0.96875 -1.765625 1.78125 -2.328125q0.828125 -0.5625 1.8125 -0.5625q1.421875 0 2.890625 0.90625l-0.96875 2.609375q-1.03125 -0.609375 -2.0625 -0.609375q-0.921875 0 -1.65625 0.5625q-0.734375 0.546875 -1.046875 1.53125q-0.46875 1.5 -0.46875 3.281248l0 8.6875l-2.8125 0zm21.515625 -2.046875q-1.5625 1.328125 -3.015625 1.875q-1.4375 0.546875 -3.09375 0.546875q-2.734375 0 -4.203125 -1.328125q-1.46875 -1.34375 -1.46875 -3.421875q0 -1.21875 0.546875 -2.21875q0.5625 -1.015625 1.453125 -1.625q0.90625 -0.609375 2.03125 -0.921875q0.828125 -0.21875 2.5 -0.421875q3.40625 -0.40625 5.015625 -0.9687481q0.015625 -0.578125 0.015625 -0.734375q0 -1.71875 -0.796875 -2.421875q-1.078125 -0.953125 -3.203125 -0.953125q-1.984375 0 -2.9375 0.703125q-0.9375 0.6875 -1.390625 2.453125l-2.75 -0.375q0.375 -1.765625 1.234375 -2.84375q0.859375 -1.09375 2.484375 -1.671875q1.625 -0.59375 3.765625 -0.59375q2.125 0 3.453125 0.5q1.328125 0.5 1.953125 1.265625q0.625 0.75 0.875 1.90625q0.140625 0.71875 0.140625 2.59375l0 3.749998q0 3.921875 0.171875 4.96875q0.1875 1.03125 0.71875 1.984375l-2.9375 0q-0.4375 -0.875 -0.5625 -2.046875zm-0.234375 -6.28125q-1.53125 0.625 -4.59375 1.0625q-1.734375 0.25 -2.453125 0.5625q-0.71875 0.3125 -1.109375 0.921875q-0.390625 0.59375 -0.390625 1.328125q0 1.125 0.84375 1.875q0.859375 0.75 2.5 0.75q1.625 0 2.890625 -0.703125q1.265625 -0.71875 1.859375 -1.953125q0.453125 -0.953125 0.453125 -2.8125l0 -1.03125zm32.796875 0.296875l3.03125 0.765625q-0.953125 3.734375 -3.4375 5.703125q-2.46875 1.953125 -6.046875 1.953125q-3.703125 0 -6.03125 -1.5q-2.3125 -1.515625 -3.53125 -4.375q-1.203125 -2.859375 -1.203125 -6.140623q0 -3.578125 1.359375 -6.234375q1.375 -2.671875 3.890625 -4.046875q2.53125 -1.390625 5.5625 -1.390625q3.4375 0 5.78125 1.75q2.34375 1.75 3.265625 4.921875l-2.984375 0.703125q-0.796875 -2.5 -2.3125 -3.640625q-1.515625 -1.140625 -3.8125 -1.140625q-2.640625 0 -4.421875 1.265625q-1.765625 1.265625 -2.484375 3.40625q-0.71875 2.125 -0.71875 4.390625q0 2.921873 0.84375 5.109373q0.859375 2.171875 2.65625 3.25q1.796875 1.078125 3.890625 1.078125q2.546875 0 4.3125 -1.46875q1.765625 -1.46875 2.390625 -4.359375zm17.234375 5.984375q-1.5625 1.328125 -3.015625 1.875q-1.4375 0.546875 -3.09375 0.546875q-2.734375 0 -4.203125 -1.328125q-1.46875 -1.34375 -1.46875 -3.421875q0 -1.21875 0.546875 -2.21875q0.5625 -1.015625 1.453125 -1.625q0.90625 -0.609375 2.03125 -0.921875q0.828125 -0.21875 2.5 -0.421875q3.40625 -0.40625 5.015625 -0.9687481q0.015625 -0.578125 0.015625 -0.734375q0 -1.71875 -0.796875 -2.421875q-1.078125 -0.953125 -3.203125 -0.953125q-1.984375 0 -2.9375 0.703125q-0.9375 0.6875 -1.390625 2.453125l-2.75 -0.375q0.375 -1.765625 1.234375 -2.84375q0.859375 -1.09375 2.484375 -1.671875q1.625 -0.59375 3.765625 -0.59375q2.125 0 3.453125 0.5q1.328125 0.5 1.953125 1.265625q0.625 0.75 0.875 1.90625q0.140625 0.71875 0.140625 2.59375l0 3.749998q0 3.921875 0.171875 4.96875q0.1875 1.03125 0.71875 1.984375l-2.9375 0q-0.4375 -0.875 -0.5625 -2.046875zm-0.234375 -6.28125q-1.53125 0.625 -4.59375 1.0625q-1.734375 0.25 -2.453125 0.5625q-0.71875 0.3125 -1.109375 0.921875q-0.390625 0.59375 -0.390625 1.328125q0 1.125 0.84375 1.875q0.859375 0.75 2.5 0.75q1.625 0 2.890625 -0.703125q1.265625 -0.71875 1.859375 -1.953125q0.453125 -0.953125 0.453125 -2.8125l0 -1.03125zm7.21875 -11.343748l0 -3.234375l2.8125 0l0 3.234375l-2.8125 0zm0 19.671873l0 -16.593748l2.8125 0l0 16.593748l-2.8125 0zm5.21875 0l6.0625 -8.625l-5.609375 -7.968748l3.515625 0l2.546875 3.890625q0.71875 1.109375 1.15625 1.859375q0.6875 -1.03125 1.265625 -1.828125l2.796875 -3.921875l3.359375 0l-5.734375 7.812498l6.171875 8.78125l-3.453125 0l-3.40625 -5.15625l-0.90625 -1.390625l-4.359375 6.546875l-3.40625 0zm28.703125 -2.046875q-1.5625 1.328125 -3.015625 1.875q-1.4375 0.546875 -3.09375 0.546875q-2.734375 0 -4.203125 -1.328125q-1.46875 -1.34375 -1.46875 -3.421875q0 -1.21875 0.546875 -2.21875q0.5625 -1.015625 1.453125 -1.625q0.90625 -0.609375 2.03125 -0.921875q0.828125 -0.21875 2.5 -0.421875q3.40625 -0.40625 5.015625 -0.9687481q0.015625 -0.578125 0.015625 -0.734375q0 -1.71875 -0.796875 -2.421875q-1.078125 -0.953125 -3.203125 -0.953125q-1.984375 0 -2.9375 0.703125q-0.9375 0.6875 -1.390625 2.453125l-2.75 -0.375q0.375 -1.765625 1.234375 -2.84375q0.859375 -1.09375 2.484375 -1.671875q1.625 -0.59375 3.765625 -0.59375q2.125 0 3.453125 0.5q1.328125 0.5 1.953125 1.265625q0.625 0.75 0.875 1.90625q0.140625 0.71875 0.140625 2.59375l0 3.749998q0 3.921875 0.171875 4.96875q0.1875 1.03125 0.71875 1.984375l-2.9375 0q-0.4375 -0.875 -0.5625 -2.046875zm-0.234375 -6.28125q-1.53125 0.625 -4.59375 1.0625q-1.734375 0.25 -2.453125 0.5625q-0.71875 0.3125 -1.109375 0.921875q-0.390625 0.59375 -0.390625 1.328125q0 1.125 0.84375 1.875q0.859375 0.75 2.5 0.75q1.625 0 2.890625 -0.703125q1.265625 -0.71875 1.859375 -1.953125q0.453125 -0.953125 0.453125 -2.8125l0 -1.03125zm16.453125 8.328125l0 -22.906248l7.890625 0q2.671875 0 4.078125 0.328125q1.96875 0.453125 3.359375 1.640625q1.8125 1.53125 2.703125 3.921875q0.90625 2.375 0.90625 5.4375q0 2.609373 -0.609375 4.624998q-0.609375 2.015625 -1.5625 3.34375q-0.953125 1.3125 -2.09375 2.078125q-1.125 0.75 -2.734375 1.140625q-1.59375 0.390625 -3.671875 0.390625l-8.265625 0zm3.03125 -2.703125l4.890625 0q2.265625 0 3.546875 -0.421875q1.296875 -0.421875 2.0625 -1.1875q1.078125 -1.078125 1.671875 -2.890625q0.609375 -1.828125 0.609375 -4.421873q0 -3.59375 -1.1875 -5.515625q-1.171875 -1.9375 -2.859375 -2.59375q-1.21875 -0.46875 -3.921875 -0.46875l-4.8125 0l0 17.499998zm19.734375 -12.093748l-0.71875 -4.28125l0 -3.828125l3.203125 0l0 3.828125l-0.75 4.28125l-1.734375 0zm16.921875 12.749998q-1.5625 1.328125 -3.015625 1.875q-1.4375 0.546875 -3.09375 0.546875q-2.734375 0 -4.203125 -1.328125q-1.46875 -1.34375 -1.46875 -3.421875q0 -1.21875 0.546875 -2.21875q0.5625 -1.015625 1.453125 -1.625q0.90625 -0.609375 2.03125 -0.921875q0.828125 -0.21875 2.5 -0.421875q3.40625 -0.40625 5.015625 -0.9687481q0.015625 -0.578125 0.015625 -0.734375q0 -1.71875 -0.796875 -2.421875q-1.078125 -0.953125 -3.203125 -0.953125q-1.984375 0 -2.9375 0.703125q-0.9375 0.6875 -1.390625 2.453125l-2.75 -0.375q0.375 -1.765625 1.234375 -2.84375q0.859375 -1.09375 2.484375 -1.671875q1.625 -0.59375 3.765625 -0.59375q2.125 0 3.453125 0.5q1.328125 0.5 1.953125 1.265625q0.625 0.75 0.875 1.90625q0.140625 0.71875 0.140625 2.59375l0 3.749998q0 3.921875 0.171875 4.96875q0.1875 1.03125 0.71875 1.984375l-2.9375 0q-0.4375 -0.875 -0.5625 -2.046875zm-0.234375 -6.28125q-1.53125 0.625 -4.59375 1.0625q-1.734375 0.25 -2.453125 0.5625q-0.71875 0.3125 -1.109375 0.921875q-0.390625 0.59375 -0.390625 1.328125q0 1.125 0.84375 1.875q0.859375 0.75 2.5 0.75q1.625 0 2.890625 -0.703125q1.265625 -0.71875 1.859375 -1.953125q0.453125 -0.953125 0.453125 -2.8125l0 -1.03125zm-5.234375 -10.328123l2.078125 -4.375l3.6875 0l-3.4375 4.375l-2.328125 0zm11.921875 20.031252l2.734375 0.40625q0.171875 1.265625 0.953125 1.84375q1.046875 0.78125 2.859375 0.78125q1.953125 0 3.015625 -0.78125q1.0625 -0.78125 1.4375 -2.1875q0.21875 -0.8593788 0.203125 -3.6093788q-1.84375 2.171875 -4.59375 2.171875q-3.421875 0 -5.296875 -2.46875q-1.875 -2.46875 -1.875 -5.921875q0 -2.374998 0.859375 -4.374998q0.859375 -2.015625 2.484375 -3.109375q1.640625 -1.09375 3.84375 -1.09375q2.9375 0 4.84375 2.375l0 -2.0l2.59375 0l0 14.343748q0 3.8750038 -0.796875 5.484379q-0.78125 1.625 -2.5 2.5625q-1.703125 0.9375 -4.203125 0.9375q-2.96875 0 -4.796875 -1.34375q-1.828125 -1.328125 -1.765625 -4.015625zm2.328125 -9.968754q0 3.265625 1.296875 4.765625q1.296875 1.5 3.25 1.5q1.9375 0 3.25 -1.484375q1.3125 -1.5 1.3125 -4.6875q0 -3.046873 -1.359375 -4.593748q-1.34375 -1.546875 -3.25 -1.546875q-1.875 0 -3.1875 1.53125q-1.3125 1.515625 -1.3125 4.515623zm26.859375 8.59375l0 -2.4375q-1.9375 2.8125 -5.265625 2.8125q-1.46875 0 -2.75 -0.5625q-1.265625 -0.5625 -1.890625 -1.40625q-0.609375 -0.859375 -0.859375 -2.09375q-0.171875 -0.828125 -0.171875 -2.625l0 -10.281248l2.8125 0l0 9.203123q0 2.203125 0.171875 2.96875q0.265625 1.109375 1.125 1.75q0.859375 0.625 2.125 0.625q1.265625 0 2.375 -0.640625q1.109375 -0.65625 1.5625 -1.765625q0.46875 -1.125 0.46875 -3.25l0 -8.890623l2.8125 0l0 16.593748l-2.515625 0zm17.75 -2.046875q-1.5625 1.328125 -3.015625 1.875q-1.4375 0.546875 -3.09375 0.546875q-2.734375 0 -4.203125 -1.328125q-1.46875 -1.34375 -1.46875 -3.421875q0 -1.21875 0.546875 -2.21875q0.5625 -1.015625 1.453125 -1.625q0.90625 -0.609375 2.03125 -0.921875q0.828125 -0.21875 2.5 -0.421875q3.40625 -0.40625 5.015625 -0.9687481q0.015625 -0.578125 0.015625 -0.734375q0 -1.71875 -0.796875 -2.421875q-1.078125 -0.953125 -3.203125 -0.953125q-1.984375 0 -2.9375 0.703125q-0.9375 0.6875 -1.390625 2.453125l-2.75 -0.375q0.375 -1.765625 1.234375 -2.84375q0.859375 -1.09375 2.484375 -1.671875q1.625 -0.59375 3.765625 -0.59375q2.125 0 3.453125 0.5q1.328125 0.5 1.953125 1.265625q0.625 0.75 0.875 1.90625q0.140625 0.71875 0.140625 2.59375l0 3.749998q0 3.921875 0.171875 4.96875q0.1875 1.03125 0.71875 1.984375l-2.9375 0q-0.4375 -0.875 -0.5625 -2.046875zm-0.234375 -6.28125q-1.53125 0.625 -4.59375 1.0625q-1.734375 0.25 -2.453125 0.5625q-0.71875 0.3125 -1.109375 0.921875q-0.390625 0.59375 -0.390625 1.328125q0 1.125 0.84375 1.875q0.859375 0.75 2.5 0.75q1.625 0 2.890625 -0.703125q1.265625 -0.71875 1.859375 -1.953125q0.453125 -0.953125 0.453125 -2.8125l0 -1.03125zm26.921875 2.25l2.765625 0.359375q-0.453125 2.859375 -2.328125 4.484375q-1.859375 1.609375 -4.578125 1.609375q-3.40625 0 -5.484375 -2.21875q-2.0625 -2.234375 -2.0625 -6.390625q0 -2.687498 0.890625 -4.703123q0.890625 -2.015625 2.703125 -3.015625q1.828125 -1.015625 3.96875 -1.015625q2.703125 0 4.421875 1.375q1.71875 1.359375 2.203125 3.875l-2.734375 0.421875q-0.390625 -1.671875 -1.390625 -2.515625q-0.984375 -0.84375 -2.390625 -0.84375q-2.125 0 -3.453125 1.53125q-1.328125 1.515625 -1.328125 4.812498q0 3.34375 1.28125 4.859375q1.28125 1.515625 3.34375 1.515625q1.65625 0 2.765625 -1.015625q1.109375 -1.015625 1.40625 -3.125zm4.125 -2.21875q0 -4.609373 2.5625 -6.828123q2.140625 -1.84375 5.21875 -1.84375q3.421875 0 5.59375 2.25q2.171875 2.234375 2.171875 6.187498q0 3.203125 -0.96875 5.046875q-0.953125 1.828125 -2.796875 2.84375q-1.828125 1.015625 -4.0 1.015625q-3.484375 0 -5.640625 -2.234375q-2.140625 -2.234375 -2.140625 -6.4375zm2.890625 0q0 3.1875 1.390625 4.78125q1.390625 1.578125 3.5 1.578125q2.09375 0 3.484375 -1.59375q1.390625 -1.59375 1.390625 -4.859375q0 -3.078123 -1.40625 -4.656248q-1.390625 -1.59375 -3.46875 -1.59375q-2.109375 0 -3.5 1.578125q-1.390625 1.578125 -1.390625 4.765623zm15.953125 8.296875l0 -16.593748l2.515625 0l0 2.328125q0.78125 -1.21875 2.078125 -1.953125q1.296875 -0.75 2.953125 -0.75q1.84375 0 3.015625 0.765625q1.1875 0.765625 1.671875 2.140625q1.96875 -2.90625 5.125 -2.90625q2.46875 0 3.796875 1.375q1.328125 1.359375 1.328125 4.203125l0 11.390623l-2.796875 0l0 -10.453123q0 -1.6875 -0.28125 -2.421875q-0.265625 -0.75 -0.984375 -1.203125q-0.71875 -0.453125 -1.6875 -0.453125q-1.75 0 -2.90625 1.171875q-1.15625 1.15625 -1.15625 3.718748l0 9.640625l-2.8125 0l0 -10.781248q0 -1.875 -0.6875 -2.8125q-0.6875 -0.9375 -2.25 -0.9375q-1.1875 0 -2.203125 0.625q-1.0 0.625 -1.453125 1.828125q-0.453125 1.203125 -0.453125 3.468748l0 8.609375l-2.8125 0zm34.875 -7.359375l2.859375 -0.25q0.203125 1.71875 0.9375 2.828125q0.75 1.09375 2.3125 1.78125q1.5625 0.671875 3.515625 0.671875q1.734375 0 3.0625 -0.515625q1.328125 -0.515625 1.96875 -1.40625q0.65625 -0.90625 0.65625 -1.96875q0 -1.078125 -0.625 -1.875q-0.625 -0.8125 -2.0625 -1.359375q-0.921875 -0.359375 -4.078125 -1.1093731q-3.15625 -0.765625 -4.421875 -1.4375q-1.640625 -0.859375 -2.453125 -2.125q-0.796875 -1.28125 -0.796875 -2.859375q0 -1.734375 0.984375 -3.234375q0.984375 -1.515625 2.875 -2.296875q1.890625 -0.78125 4.203125 -0.78125q2.546875 0 4.484375 0.828125q1.953125 0.8125 3.0 2.40625q1.046875 1.59375 1.125 3.609375l-2.90625 0.21875q-0.234375 -2.171875 -1.59375 -3.28125q-1.34375 -1.109375 -3.984375 -1.109375q-2.75 0 -4.015625 1.015625q-1.25 1.0 -1.25 2.421875q0 1.234375 0.890625 2.03125q0.875 0.796875 4.5625 1.640625q3.703125 0.828125 5.078125 1.453125q2.0 0.921875 2.953125 2.343748q0.953125 1.40625 0.953125 3.25q0 1.828125 -1.046875 3.453125q-1.046875 1.609375 -3.015625 2.515625q-1.953125 0.890625 -4.40625 0.890625q-3.109375 0 -5.21875 -0.90625q-2.09375 -0.90625 -3.296875 -2.71875q-1.1875 -1.828125 -1.25 -4.125zm33.375 2.015625l2.90625 0.359375q-0.6875 2.546875 -2.546875 3.953125q-1.859375 1.40625 -4.75 1.40625q-3.640625 0 -5.78125 -2.234375q-2.125 -2.25 -2.125 -6.296875q0 -4.187498 2.15625 -6.499998q2.15625 -2.3125 5.59375 -2.3125q3.328125 0 5.4375 2.265625q2.109375 2.265625 2.109375 6.374998q0 0.25 -0.015625 0.75l-12.375 0q0.15625 2.734375 1.546875 4.1875q1.390625 1.453125 3.46875 1.453125q1.546875 0 2.640625 -0.8125q1.09375 -0.8125 1.734375 -2.59375zm-9.234375 -4.546875l9.265625 0q-0.1875 -2.093748 -1.0625 -3.140623q-1.34375 -1.625 -3.484375 -1.625q-1.9375 0 -3.265625 1.296875q-1.3125 1.296875 -1.453125 3.468748zm15.671875 9.890625l0 -16.593748l2.53125 0l0 2.359375q1.828125 -2.734375 5.28125 -2.734375q1.5 0 2.75 0.546875q1.265625 0.53125 1.890625 1.40625q0.625 0.875 0.875 2.078125q0.15625 0.78125 0.15625 2.734373l0 10.203125l-2.8125 0l0 -10.09375q0 -1.7187481 -0.328125 -2.562498q-0.328125 -0.859375 -1.171875 -1.359375q-0.828125 -0.515625 -1.953125 -0.515625q-1.796875 0 -3.109375 1.140625q-1.296875 1.140625 -1.296875 4.328123l0 9.0625l-2.8125 0zm16.671875 -4.953125l2.78125 -0.4375q0.234375 1.671875 1.296875 2.5625q1.078125 0.890625 3.0 0.890625q1.9375 0 2.875 -0.78125q0.9375 -0.796875 0.9375 -1.859375q0 -0.953125 -0.828125 -1.5q-0.578125 -0.375 -2.875 -0.953125q-3.09375 -0.78125 -4.296875 -1.34375q-1.1875 -0.578125 -1.8125 -1.578125q-0.609375 -1.0156231 -0.609375 -2.234373q0 -1.109375 0.5 -2.046875q0.515625 -0.953125 1.390625 -1.578125q0.65625 -0.484375 1.78125 -0.8125q1.140625 -0.34375 2.4375 -0.34375q1.953125 0 3.421875 0.5625q1.484375 0.5625 2.1875 1.53125q0.703125 0.953125 0.96875 2.5625l-2.75 0.375q-0.1875 -1.28125 -1.09375 -2.0q-0.890625 -0.71875 -2.53125 -0.71875q-1.9375 0 -2.765625 0.640625q-0.828125 0.640625 -0.828125 1.5q0 0.546875 0.34375 0.984375q0.34375 0.453125 1.078125 0.75q0.421875 0.15625 2.484375 0.7187481q2.984375 0.796875 4.15625 1.3125q1.1875 0.5 1.859375 1.46875q0.671875 0.96875 0.671875 2.40625q0 1.40625 -0.828125 2.65625q-0.8125 1.234375 -2.359375 1.921875q-1.546875 0.671875 -3.5 0.671875q-3.234375 0 -4.9375 -1.34375q-1.6875 -1.34375 -2.15625 -3.984375zm16.078125 -3.34375q0 -4.609373 2.5625 -6.828123q2.140625 -1.84375 5.21875 -1.84375q3.421875 0 5.59375 2.25q2.171875 2.234375 2.171875 6.187498q0 3.203125 -0.96875 5.046875q-0.953125 1.828125 -2.796875 2.84375q-1.828125 1.015625 -4.0 1.015625q-3.484375 0 -5.640625 -2.234375q-2.140625 -2.234375 -2.140625 -6.4375zm2.890625 0q0 3.1875 1.390625 4.78125q1.390625 1.578125 3.5 1.578125q2.09375 0 3.484375 -1.59375q1.390625 -1.59375 1.390625 -4.859375q0 -3.078123 -1.40625 -4.656248q-1.390625 -1.59375 -3.46875 -1.59375q-2.109375 0 -3.5 1.578125q-1.390625 1.578125 -1.390625 4.765623zm15.921875 8.296875l0 -16.593748l2.53125 0l0 2.515625q0.96875 -1.765625 1.78125 -2.328125q0.828125 -0.5625 1.8125 -0.5625q1.421875 0 2.890625 0.90625l-0.96875 2.609375q-1.03125 -0.609375 -2.0625 -0.609375q-0.921875 0 -1.65625 0.5625q-0.734375 0.546875 -1.046875 1.53125q-0.46875 1.5 -0.46875 3.281248l0 8.6875l-2.8125 0z" fill-rule="nonzero"/></g></svg>